<svg width="147" height="50" viewBox="0 0 147 50" fill="none" xmlns="http://www.w3.org/2000/svg">
<path d="M102.53 31.8036V39.062C102.53 39.2297 102.53 39.3974 102.527 39.5644C102.524 39.6992 102.451 39.7803 102.332 39.787C102.277 39.7903 102.221 39.7921 102.165 39.7924C101.401 39.7924 100.638 39.7921 99.8747 39.7915C99.7819 39.7906 99.6893 39.7808 99.5984 39.762C99.569 39.7561 99.5355 39.715 99.5254 39.6831C99.5107 39.6293 99.5036 39.5737 99.5044 39.5179C99.5014 39.3502 99.5016 39.1825 99.5016 39.0154V30.1378C99.5016 29.9701 99.495 29.8033 99.4888 29.6361C99.4888 29.6264 99.4653 29.6134 99.4505 29.609C99.4358 29.6047 99.4085 29.6016 99.4013 29.61C99.3428 29.6809 99.2806 29.7499 99.2323 29.8278C98.2803 31.3612 97.3293 32.8951 96.3795 34.4299L93.351 39.3171C93.2923 39.412 93.2235 39.5016 93.1726 39.6004C93.0928 39.7551 92.9638 39.8008 92.803 39.7928C92.7844 39.7918 92.7656 39.7928 92.7471 39.7928C91.8908 39.7928 91.0342 39.7938 90.1779 39.7915C90.0854 39.7896 89.9934 39.7783 89.9032 39.7578C89.8737 39.7513 89.8446 39.7124 89.8287 39.6815C89.8135 39.6478 89.806 39.6112 89.8065 39.5743C89.803 39.4253 89.8014 39.2762 89.8016 39.1271V24.4987C89.8016 24.3685 89.8001 24.2381 89.8029 24.1074C89.8078 23.8679 89.8588 23.8138 90.101 23.8138C90.9202 23.8116 91.7394 23.8138 92.5586 23.8138C92.5956 23.8154 92.6326 23.819 92.6695 23.8243C92.738 23.8315 92.8115 23.9006 92.8143 23.9703C92.8215 24.1557 92.8289 24.3415 92.8291 24.5272C92.8299 27.5793 92.8304 30.6317 92.8304 33.6838C92.8304 33.8507 92.8388 34.0176 92.8467 34.1843C92.8467 34.1927 92.8778 34.2029 92.8955 34.2062C92.9133 34.2096 92.9366 34.2103 92.9447 34.2009C93.0042 34.131 93.0692 34.0651 93.1162 33.9878C93.7751 32.9078 94.4326 31.8269 95.0887 30.7451C96.4234 28.5518 97.7585 26.3586 99.0938 24.1654C99.1229 24.1178 99.1558 24.0721 99.1821 24.0232C99.2594 23.88 99.3692 23.8088 99.5404 23.8098C100.434 23.8148 101.328 23.8121 102.221 23.8124C102.258 23.8124 102.296 23.8157 102.333 23.818C102.438 23.8249 102.515 23.8927 102.521 23.9864C102.527 24.0803 102.53 24.172 102.53 24.2651C102.531 24.6371 102.53 25.0094 102.53 25.3816V31.8036ZM119.534 31.7579V24.553C119.534 24.3853 119.534 24.2174 119.538 24.0497C119.541 23.882 119.607 23.8202 119.779 23.8152C119.909 23.8113 120.04 23.812 120.17 23.812H130.731C130.898 23.812 131.065 23.8194 131.233 23.8259C131.296 23.8286 131.367 23.9083 131.372 23.9767C131.377 24.0328 131.383 24.0877 131.384 24.1432C131.384 24.8321 131.384 25.521 131.384 26.2099C131.384 26.2658 131.379 26.3217 131.374 26.3766C131.369 26.4383 131.29 26.5263 131.233 26.5289C131.066 26.5361 130.899 26.5443 130.732 26.5443C128.515 26.5455 126.299 26.5455 124.083 26.5443C123.766 26.5443 123.449 26.5447 123.132 26.5452C123.076 26.5452 123.02 26.548 122.965 26.5512C122.868 26.5573 122.785 26.6353 122.78 26.7232C122.775 26.8161 122.77 26.909 122.77 27.0019C122.77 27.8769 122.77 28.7519 122.77 29.6269C122.771 29.7379 122.78 29.8486 122.797 29.9581C122.802 29.986 122.842 30.0209 122.873 30.0317C122.926 30.0493 122.981 30.0585 123.037 30.059C123.205 30.0628 123.372 30.062 123.54 30.062C125.738 30.062 127.935 30.0621 130.133 30.0626C130.301 30.0626 130.468 30.0685 130.635 30.0743C130.707 30.0768 130.78 30.146 130.786 30.2113C130.792 30.2852 130.801 30.3594 130.801 30.4332C130.802 31.0849 130.802 31.7365 130.801 32.3881C130.801 32.444 130.798 32.4999 130.795 32.5558C130.789 32.6659 130.728 32.7375 130.632 32.746C130.576 32.751 130.521 32.7562 130.465 32.7569C130.316 32.7587 130.167 32.758 130.018 32.758C127.839 32.758 125.66 32.7584 123.481 32.759C123.295 32.759 123.109 32.769 122.923 32.7782C122.856 32.7815 122.787 32.858 122.782 32.927C122.776 33.0012 122.769 33.0753 122.769 33.1495C122.769 34.3412 122.769 35.5327 122.77 36.724C122.771 36.8161 122.781 36.908 122.8 36.9981C122.805 37.0269 122.846 37.0592 122.877 37.0698C122.93 37.0865 122.985 37.0951 123.041 37.0956C123.209 37.099 123.377 37.0984 123.544 37.0984H130.975C131.161 37.0984 131.347 37.104 131.534 37.1094C131.606 37.1114 131.679 37.1793 131.685 37.2452C131.691 37.3192 131.699 37.3932 131.699 37.4673C131.701 38.1189 131.701 38.7705 131.699 39.422C131.699 39.4781 131.697 39.534 131.694 39.5899C131.687 39.7191 131.62 39.7796 131.477 39.7865C131.421 39.7893 131.365 39.7903 131.309 39.7906C131.197 39.7913 131.085 39.7906 130.973 39.7906C127.398 39.7906 123.822 39.7905 120.246 39.79C120.06 39.79 119.874 39.7819 119.689 39.7745C119.619 39.7716 119.546 39.6989 119.544 39.63C119.538 39.4442 119.532 39.2581 119.532 39.0722C119.533 36.6349 119.534 34.1968 119.534 31.7579ZM48.1024 9.20842V1.8353C48.1024 1.14756 48.0456 1.20379 48.7322 1.20362C52.5504 1.2028 56.3688 1.2028 60.187 1.20362C60.8777 1.20362 60.8284 1.14608 60.8284 1.82675V16.5722C60.8284 16.7208 60.8221 16.8694 60.8161 17.0181C60.8131 17.0894 60.7432 17.1631 60.6788 17.1697C60.6229 17.1752 60.5678 17.1846 60.5125 17.1846C59.6372 17.1856 58.7617 17.1856 57.8862 17.1846C57.8303 17.1846 57.7694 17.1869 57.7217 17.1646C57.6774 17.1438 57.6274 17.0967 57.6165 17.0528C57.5947 16.964 57.5924 16.8691 57.592 16.7765C57.5897 16.3671 57.5909 15.9574 57.5909 15.5479V4.60008C57.5909 4.41429 57.5838 4.22817 57.5769 4.04238C57.5746 3.97465 57.5013 3.9074 57.4286 3.90263C57.3359 3.89639 57.2431 3.88997 57.1502 3.88997C55.3622 3.88915 53.5742 3.88915 51.7862 3.88997C51.6933 3.88997 51.6002 3.89491 51.5075 3.90066C51.4146 3.90625 51.3454 3.98057 51.3429 4.08678C51.3386 4.27281 51.3365 4.45888 51.3367 4.64496V14.2525C51.3367 15.0532 51.3363 15.8537 51.3358 16.6542C51.3378 16.7841 51.3307 16.9142 51.3148 17.0431C51.3084 17.0873 51.2589 17.1384 51.2153 17.1608C51.169 17.1849 51.107 17.1851 51.0519 17.1853C50.1578 17.1864 49.2639 17.1861 48.3698 17.1846C48.3141 17.1854 48.2586 17.1768 48.2057 17.1593C48.1749 17.1483 48.1347 17.1108 48.1322 17.082C48.1167 16.916 48.1043 16.7489 48.1043 16.5822C48.1021 14.1241 48.1015 11.6662 48.1024 9.20842ZM140.909 31.5787C141.009 31.628 141.106 31.6816 141.207 31.7255C141.768 31.9687 142.218 32.3491 142.582 32.8348C142.738 33.0431 142.891 33.2554 143.024 33.4777C143.31 33.9569 143.603 34.4337 143.856 34.9312C144.614 36.4241 145.355 37.9257 146.101 39.4248C146.141 39.5075 146.172 39.594 146.194 39.683C146.199 39.7045 146.166 39.7528 146.141 39.7622C146.089 39.7816 146.034 39.7915 145.978 39.7913C144.898 39.7929 143.818 39.7934 142.738 39.7928C142.719 39.7928 142.701 39.791 142.682 39.7916C142.533 39.7971 142.443 39.7196 142.383 39.5884C141.939 38.6251 141.486 37.6663 141.051 36.6992C140.668 35.8497 140.233 35.0282 139.778 34.2169C139.651 33.99 139.505 33.7734 139.364 33.5544C139.03 33.0349 138.534 32.8345 137.936 32.836C137.841 32.836 137.765 32.9096 137.762 33.0124C137.757 33.1798 137.754 33.3472 137.754 33.5147C137.754 35.432 137.754 37.3494 137.754 39.2668C137.754 39.8013 137.768 39.7944 137.241 39.7939C136.458 39.7929 135.676 39.7946 134.894 39.792C134.802 39.79 134.71 39.7786 134.62 39.7578C134.59 39.7515 134.561 39.7134 134.545 39.683C134.529 39.6498 134.52 39.6134 134.521 39.5766C134.517 39.4089 134.515 39.2411 134.515 39.0733V24.5531C134.515 24.3673 134.52 24.1812 134.526 23.9954C134.53 23.9044 134.614 23.8277 134.711 23.8212C134.767 23.8171 134.823 23.8134 134.879 23.8134C135.717 23.8128 136.555 23.8128 137.393 23.8134C137.467 23.8134 137.545 23.8115 137.614 23.833C137.659 23.847 137.718 23.8971 137.725 23.9386C137.745 24.0666 137.754 24.1962 137.753 24.3257C137.755 25.4055 137.756 26.4852 137.754 27.5649C137.754 28.4399 137.753 29.3147 137.756 30.1896C137.758 30.3 137.77 30.41 137.79 30.5185C137.794 30.5444 137.839 30.5654 137.868 30.5843C137.884 30.594 137.902 30.5985 137.921 30.5973C138.294 30.5753 138.656 30.4636 138.977 30.2718C139.106 30.1958 139.215 30.0898 139.294 29.9627C139.393 29.8051 139.486 29.6439 139.572 29.4795C139.899 28.8506 140.154 28.1913 140.414 27.5344C140.6 27.0675 140.786 26.5999 141.024 26.1573C141.201 25.83 141.391 25.5102 141.594 25.1986C142.008 24.5615 142.588 24.1572 143.332 23.9805C143.749 23.8813 144.165 23.7891 144.596 23.7766C144.987 23.7654 145.377 23.7388 145.767 23.7225C145.841 23.7192 145.916 23.7263 145.988 23.7434C146.039 23.7561 146.089 23.7899 146.101 23.8522C146.11 23.8881 146.116 23.9247 146.118 23.9617C146.12 24.5946 146.12 25.2274 146.12 25.8602C146.117 25.8972 146.113 25.934 146.107 25.9705C146.1 26.0365 146.027 26.1049 145.955 26.107C145.676 26.1152 145.397 26.1225 145.118 26.1287C144.912 26.1333 144.713 26.1739 144.515 26.2329C144.183 26.3319 143.914 26.5202 143.694 26.7846C143.539 26.9709 143.414 27.1803 143.323 27.4052C143.127 27.8879 142.939 28.3731 142.747 28.8571C142.61 29.2031 142.478 29.5508 142.334 29.8938C142.26 30.0645 142.177 30.2311 142.085 30.3929C141.904 30.7199 141.652 31.0018 141.346 31.2176C141.211 31.3155 141.077 31.4151 140.944 31.5155C140.931 31.5262 140.926 31.5471 140.909 31.5787ZM87.1702 17.4373C86.3996 17.4449 85.737 17.3839 85.0812 17.218C83.6402 16.8546 82.463 16.0835 81.5158 14.9515C80.6967 13.9733 80.2146 12.8347 79.9636 11.5926C79.7806 10.6792 79.71 9.74683 79.7533 8.8163C79.8048 7.63926 79.9769 6.48294 80.4133 5.38005C81.1013 3.64072 82.2787 2.35205 83.984 1.56813C84.6953 1.23959 85.4598 1.04145 86.2411 0.983143C86.408 0.970319 86.5741 0.947959 86.7418 0.932833C86.8345 0.924448 86.9276 0.916391 87.0206 0.916391C88.0311 0.916063 89.025 1.02507 89.9786 1.38859C90.5194 1.59203 91.0281 1.87215 91.4891 2.22035C92.1673 2.73497 92.7042 3.36845 93.08 4.13511C93.2787 4.53509 93.4431 4.95124 93.5713 5.37907C93.6152 5.52786 93.5565 5.62486 93.3954 5.66465C92.9258 5.78024 92.4554 5.89286 91.9853 6.0063C91.6779 6.08045 91.3734 6.17105 91.063 6.22136C90.8657 6.25325 90.6777 6.36818 90.4671 6.30652C90.3399 6.15921 90.3295 5.96389 90.2585 5.79339C89.8029 4.70103 89.0155 4.01608 87.846 3.76617C87.1905 3.62642 86.5461 3.6616 85.9148 3.84673C84.874 4.15205 84.1304 4.8217 83.6628 5.79405C83.4191 6.30077 83.2942 6.84481 83.2032 7.39757C83.0697 8.21043 83.0603 9.02921 83.1005 9.8475C83.1352 10.554 83.2248 11.2557 83.43 11.9372C83.5266 12.2585 83.646 12.5712 83.8127 12.8633C84.3073 13.7298 85.0315 14.3059 85.9991 14.5601C86.5961 14.7181 87.2226 14.7284 87.8245 14.5902C88.5775 14.4193 89.1855 14.0068 89.6515 13.3895C89.9459 12.9991 90.1539 12.5636 90.3126 12.1036C90.3852 11.8931 90.4403 11.6764 90.5044 11.4629C90.5324 11.3682 90.6184 11.3272 90.7244 11.3568C90.814 11.382 90.9031 11.4084 90.9919 11.4361C91.79 11.6871 92.5879 11.9387 93.3857 12.1909C93.4562 12.2142 93.5234 12.2461 93.5861 12.2857C93.6124 12.3022 93.6259 12.3433 93.639 12.3758C93.6449 12.391 93.639 12.413 93.6339 12.4308C93.3307 13.5392 92.8553 14.5594 92.0897 15.4303C91.303 16.3247 90.317 16.8898 89.1722 17.1935C88.4838 17.3766 87.7832 17.4533 87.1702 17.4373ZM63.5781 9.37382C63.6044 8.40214 63.655 7.51102 63.8612 6.63634C64.0544 5.8169 64.3299 5.02903 64.7678 4.30545C65.6394 2.86584 66.8606 1.85322 68.4642 1.31822C68.9952 1.14131 69.5365 1.00912 70.0995 0.980842C70.2481 0.973278 70.3961 0.952891 70.5445 0.940396C70.6743 0.929544 70.8045 0.912445 70.9344 0.913432C71.9641 0.927407 72.9774 1.04102 73.9394 1.4389C74.9221 1.845 75.7674 2.43738 76.4009 3.3017C76.8788 3.95409 77.2103 4.67916 77.4179 5.46045C77.434 5.52112 77.3796 5.61763 77.3193 5.6372C77.2839 5.6487 77.2494 5.66153 77.2127 5.67024C76.2902 5.89056 75.3677 6.11038 74.4451 6.32987C74.3496 6.35256 74.2759 6.30554 74.2355 6.19834C74.1765 6.04165 74.1237 5.88234 74.0606 5.72762C73.7271 4.91493 73.164 4.31827 72.3546 3.97333C70.9944 3.39361 69.1893 3.66226 68.0977 4.87892C67.7565 5.25888 67.5083 5.6931 67.3404 6.17105C67.1549 6.69914 67.0421 7.24434 66.9858 7.80269C66.8998 8.63616 66.8956 9.47604 66.9734 10.3103C67.0229 10.8312 67.1013 11.3445 67.2371 11.8478C67.4039 12.4659 67.6704 13.0358 68.1095 13.5133C68.699 14.1537 69.4153 14.5474 70.2892 14.6418C70.622 14.6803 70.9579 14.6826 71.291 14.6485C72.1949 14.5507 72.9093 14.1241 73.4613 13.4177C73.8448 12.9271 74.0796 12.3606 74.2557 11.7674C74.2926 11.6431 74.3318 11.5191 74.3787 11.3982C74.3886 11.3726 74.4346 11.3517 74.4667 11.3466C74.5014 11.3414 74.5405 11.3537 74.5757 11.3647C75.4808 11.648 76.3855 11.9322 77.29 12.2174C77.3428 12.2354 77.3911 12.264 77.4327 12.3012C77.4566 12.3219 77.4774 12.368 77.4715 12.3971C77.4488 12.5056 77.4204 12.6129 77.3864 12.7185C77.1171 13.5771 76.7399 14.3817 76.195 15.1033C75.389 16.1703 74.3174 16.8346 73.04 17.1871C72.1875 17.4225 71.316 17.457 70.4373 17.4342C69.729 17.4148 69.0279 17.2863 68.3588 17.0532C66.8986 16.5501 65.76 15.6266 64.9024 14.3516C64.3222 13.4893 63.9875 12.5274 63.7757 11.517C63.6215 10.7837 63.6162 10.0381 63.5781 9.37382ZM30.3677 1.12224H37.9075C38.0935 1.12224 38.2794 1.12898 38.4652 1.13621C38.5331 1.13851 38.6007 1.21184 38.6076 1.28336C38.6129 1.33926 38.6196 1.39401 38.6204 1.44942C38.6226 1.5798 38.6217 1.71002 38.6217 1.84072C38.6217 6.80979 38.6216 11.7787 38.6209 16.7474C38.6209 16.9331 38.6096 17.1184 38.602 17.3036C38.6 17.3498 38.5741 17.3762 38.5336 17.3712C38.4996 17.3673 38.4555 17.3642 38.4358 17.3425C38.3979 17.3028 38.3695 17.255 38.3529 17.2027C38.3192 17.0771 38.2903 16.9502 38.2663 16.8224C37.6583 13.7158 36.3694 10.9229 34.4 8.44423C32.4509 5.99841 30.0506 4.13051 27.1993 2.84052C25.9446 2.27178 24.6314 1.84218 23.2832 1.55941C23.0105 1.50203 22.7349 1.45863 22.4613 1.4047C22.3679 1.38629 22.2826 1.34321 22.2456 1.24851C22.2361 1.22384 22.2542 1.17337 22.2763 1.15463C22.3017 1.13325 22.3462 1.12832 22.3817 1.12668C22.5494 1.12273 22.7173 1.12174 22.885 1.12174L30.3677 1.12224ZM8.24215 1.12224C10.7363 1.12224 13.2302 1.1224 15.7239 1.12306C15.9094 1.12306 16.095 1.1326 16.2801 1.14509C16.3031 1.14673 16.336 1.19063 16.3408 1.21908C16.3434 1.23638 16.3423 1.25403 16.3377 1.2709C16.3331 1.28777 16.325 1.3035 16.314 1.31707C16.2464 1.38513 16.1558 1.40947 16.0624 1.42394C15.1042 1.57092 14.1698 1.81771 13.2516 2.12269C11.1991 2.80331 9.27656 3.82632 7.56542 5.14839C5.56596 6.68846 3.9269 8.54649 2.6484 10.7222C1.7992 12.1667 1.14401 13.7168 0.699743 15.3325C0.541575 15.9066 0.422867 16.4887 0.296267 17.0695C0.276702 17.1595 0.273085 17.2568 0.200577 17.3244C0.176737 17.3469 0.138428 17.3563 0.105216 17.3658C0.0623036 17.3781 0.0353394 17.3564 0.0279407 17.3099C0.0190623 17.2555 0.00492253 17.2014 0.00278513 17.1466C-0.00148968 17.0348 0.000318891 16.923 0.000318891 16.8112C0.000154475 11.7879 0.000318891 6.76458 0.000647722 1.74158C0.000647722 1.59295 0.00525136 1.44416 0.0121568 1.29569C0.0162672 1.20527 0.100119 1.13309 0.20255 1.13013C0.370254 1.12536 0.537794 1.12289 0.70484 1.12257C3.21711 1.12224 5.72971 1.12207 8.24232 1.1224L8.24215 1.12224ZM8.25826 39.7551H0.713883C0.527929 39.7551 0.34181 39.7482 0.155856 39.7412C0.0966665 39.739 0.0180758 39.6547 0.0152807 39.5897C0.00821085 39.4219 0.00130539 39.2553 0.00130539 39.0881C0.000483307 37.3379 -9.94073e-06 35.5876 -9.94073e-06 33.8374V24.1732C-9.94073e-06 23.9871 0.00607344 23.8009 0.0111703 23.615C0.0128145 23.5523 0.0670717 23.505 0.111464 23.5109C0.172955 23.5188 0.219649 23.552 0.234776 23.6045C0.281141 23.7648 0.325862 23.9259 0.356772 24.0903C0.60208 25.3934 0.990759 26.6537 1.50357 27.8751C2.21648 29.5781 3.17222 31.1688 4.34106 32.5979C6.17265 34.8387 8.39226 36.5882 10.9999 37.8465C12.4144 38.5261 13.8884 39.0368 15.4325 39.3347C15.67 39.3806 15.9077 39.421 16.1435 39.4758C16.2101 39.4912 16.2717 39.5427 16.3253 39.5887C16.3429 39.6037 16.3337 39.6545 16.3309 39.6884C16.3296 39.7024 16.3138 39.7257 16.303 39.7272C16.2112 39.739 16.1188 39.7537 16.0267 39.754C15.5051 39.7566 14.9835 39.7555 14.462 39.7555L8.25826 39.7551ZM30.4223 23.4475H37.908C38.094 23.4475 38.2799 23.4544 38.4659 23.4606C38.5341 23.4627 38.602 23.5348 38.6081 23.6046C38.613 23.6605 38.6199 23.7156 38.6208 23.7713C38.6229 23.9016 38.6221 24.0318 38.6221 24.1626C38.6221 29.1327 38.6217 34.1028 38.6211 39.0728C38.6211 39.2578 38.6078 39.4429 38.5989 39.6277C38.5964 39.6747 38.5658 39.6954 38.5195 39.683C38.4854 39.6736 38.4407 39.6668 38.4216 39.6425C38.3279 39.5205 38.3047 39.3714 38.2798 39.2249C38.1921 38.7109 38.0728 38.2045 37.9346 37.7014C37.1938 35.0062 35.9298 32.5836 34.1424 30.4334C32.2537 28.1648 29.9671 26.4153 27.2818 25.1851C26.0267 24.6107 24.7256 24.1709 23.3712 23.8914C23.0798 23.8312 22.7882 23.7717 22.498 23.7069C22.4268 23.6901 22.3585 23.6628 22.2953 23.626C22.2719 23.612 22.265 23.564 22.2586 23.53C22.2507 23.4894 22.2763 23.4631 22.3237 23.4618C22.5093 23.456 22.695 23.4478 22.8806 23.4478C25.3945 23.4471 27.9084 23.447 30.4223 23.4475ZM112.698 33.164V39.1394C112.698 39.3073 112.691 39.4741 112.684 39.6412C112.681 39.7081 112.607 39.7724 112.533 39.78C112.496 39.7853 112.459 39.7888 112.422 39.7905C111.528 39.7911 110.634 39.7911 109.74 39.7905C109.685 39.7905 109.624 39.7888 109.577 39.7645C109.534 39.742 109.484 39.6913 109.478 39.6476C109.461 39.5192 109.46 39.3883 109.459 39.2581C109.458 38.5322 109.458 37.8062 109.459 37.0803V27.3628C109.459 27.214 109.46 27.0649 109.458 26.9156C109.453 26.5776 109.425 26.5478 109.064 26.5471C107.872 26.5448 106.68 26.5445 105.489 26.546C105.321 26.546 105.153 26.5475 104.985 26.5435C104.762 26.5379 104.704 26.4736 104.697 26.2297C104.695 26.1553 104.696 26.0809 104.696 26.0061C104.696 25.429 104.695 24.852 104.697 24.2749C104.696 24.1637 104.706 24.0527 104.728 23.9436C104.738 23.9009 104.795 23.8572 104.84 23.8365C104.888 23.8144 104.949 23.8149 105.004 23.8134C105.134 23.8103 105.265 23.8116 105.395 23.8116H116.736C116.885 23.8116 117.034 23.8116 117.184 23.8152C117.338 23.819 117.404 23.8937 117.411 24.0652C117.412 24.0837 117.413 24.1025 117.413 24.1211C117.413 24.8285 117.413 25.5358 117.412 26.2433C117.412 26.2982 117.4 26.3533 117.393 26.4082C117.39 26.4362 117.377 26.4624 117.358 26.483C117.339 26.5036 117.313 26.5175 117.286 26.5226C117.138 26.5386 116.989 26.5462 116.841 26.5448C115.686 26.5463 114.531 26.5468 113.377 26.5463C113.209 26.5463 113.042 26.5509 112.875 26.5575C112.777 26.5614 112.71 26.6353 112.707 26.7413C112.702 26.909 112.699 27.0764 112.699 27.2436C112.697 29.2172 112.697 31.1907 112.698 33.164ZM48.0909 31.8066V24.49C48.0909 24.3223 48.0941 24.1549 48.1003 23.9879C48.1036 23.8937 48.1825 23.8241 48.2874 23.8202C48.4178 23.8152 48.5484 23.8128 48.6789 23.8128H58.2888C58.9664 23.8128 58.9277 23.7776 58.9272 24.4468C58.9272 25.0058 58.9282 25.5638 58.9256 26.1223C58.9241 26.2143 58.9136 26.3059 58.8944 26.3959C58.8884 26.4255 58.8514 26.459 58.8209 26.4712C58.7695 26.492 58.7148 26.5038 58.6594 26.5059C58.4917 26.511 58.324 26.5098 58.1563 26.5098H52.0662C51.8985 26.5098 51.7308 26.5098 51.5631 26.5133C51.4021 26.5172 51.3307 26.5904 51.3266 26.755C51.3224 26.9227 51.323 27.0904 51.323 27.2581C51.323 31.205 51.3227 35.1519 51.3224 39.0986C51.3224 39.8659 51.3922 39.7913 50.6389 39.7934C49.9312 39.7957 49.2236 39.7957 48.5158 39.7934C48.4232 39.7934 48.3303 39.7839 48.2378 39.7772C48.173 39.7724 48.1062 39.6982 48.1023 39.6262C48.0972 39.5335 48.0914 39.4408 48.0909 39.3477C48.0895 39.0314 48.0909 38.7147 48.0909 38.3982V31.8066ZM93.5392 19.8585H93.8187C94.2442 19.8622 94.259 19.8248 94.3791 20.2848C94.5349 20.8819 94.9476 21.2182 95.5453 21.3497C95.964 21.4421 96.3979 21.4431 96.817 21.3527C97.3925 21.2321 97.7913 20.9163 97.9817 20.353C98.0054 20.2831 98.0286 20.2121 98.0498 20.1409C98.1287 19.8769 98.1409 19.8614 98.3739 19.8603C98.7269 19.859 99.0802 19.8641 99.4334 19.8688C99.5195 19.8701 99.5877 19.9354 99.5799 20.0004C99.4934 20.6948 99.2844 21.341 98.829 21.8888C98.4122 22.3898 97.8902 22.7301 97.2583 22.8929C96.5615 23.0723 95.8606 23.077 95.1618 22.9013C94.2832 22.68 93.6305 22.1647 93.2038 21.3683C92.9822 20.9548 92.8451 20.5127 92.8138 20.0416C92.8071 19.9423 92.8737 19.8729 92.9815 19.8664C93.0374 19.8629 93.0933 19.8595 93.1486 19.859C93.2786 19.858 93.4088 19.859 93.5391 19.859L93.5392 19.8585ZM82.8792 46.7767C83.1394 46.7767 83.3999 46.7744 83.6601 46.7781C83.7553 46.7792 83.8264 46.8629 83.8346 46.9622C83.8659 47.3351 83.7997 47.7097 83.6424 48.0493C83.3749 48.6364 82.9071 48.9708 82.2695 49.0576C82.085 49.0812 81.8987 49.0869 81.7131 49.0747C80.8578 49.0244 80.2927 48.5647 79.9894 47.7871C79.7433 47.1562 79.7544 46.5066 80.0016 45.8779C80.4059 44.8495 81.355 44.4999 82.2475 44.6127C82.377 44.6277 82.5046 44.657 82.6279 44.6997C83.2124 44.9093 83.5959 45.3042 83.7267 45.9236C83.7361 45.9678 83.682 46.0303 83.6266 46.0354C83.5526 46.042 83.4786 46.0466 83.4045 46.0494C83.2835 46.0546 83.187 46.013 83.1302 45.8996C83.121 45.8835 83.1126 45.8668 83.1052 45.8498C82.7738 44.9325 81.2717 44.8403 80.6913 45.8297C80.2786 46.5332 80.3102 47.2512 80.7406 47.9434C81.0722 48.4769 81.7761 48.644 82.258 48.524C82.7611 48.3982 83.0773 48.1031 83.2055 47.61C83.2886 47.2904 83.2583 47.2453 82.9347 47.2458C82.6745 47.2458 82.4139 47.2458 82.1538 47.2371C82.0138 47.2325 81.9745 47.1592 81.9747 47.0091C81.9747 46.8589 82.0306 46.7813 82.1539 46.779C82.3956 46.7743 82.6373 46.7776 82.8792 46.7776V46.7767ZM51.2605 46.7808C51.5022 46.7808 51.7439 46.7794 51.9856 46.7818C52.0598 46.7825 52.1342 46.8502 52.1416 46.9124C52.1893 47.308 52.1525 47.6942 51.9813 48.0567C51.7063 48.6392 51.2456 48.9818 50.6037 49.0573C50.3819 49.0818 50.1583 49.0836 49.9362 49.0629C49.3656 49.0131 48.9148 48.7428 48.586 48.2742C48.3694 47.9695 48.2351 47.6141 48.196 47.2424C48.1618 46.9254 48.159 46.6084 48.2207 46.2973C48.3422 45.6863 48.6401 45.1814 49.197 44.8715C49.8193 44.5253 50.4756 44.4869 51.1305 44.7666C51.6413 44.9848 51.9552 45.384 52.0677 45.9336C52.077 45.9793 52.0588 46.0035 52.0154 46.0198C51.8888 46.0683 51.7589 46.0599 51.6316 46.0352C51.5779 46.0229 51.5304 45.9918 51.4978 45.9474C51.4465 45.8712 51.4197 45.7787 51.372 45.6992C51.1897 45.3917 50.9108 45.2109 50.5654 45.1558C49.8633 45.044 49.2601 45.3253 48.952 45.9764C48.6822 46.5462 48.6822 47.1335 48.9424 47.7047C49.2875 48.4628 50.0957 48.7559 50.8666 48.4396C51.2757 48.2719 51.4965 47.9309 51.5675 47.4977C51.6006 47.2966 51.5272 47.2552 51.3664 47.2502C51.069 47.2409 50.7714 47.2401 50.474 47.2335C50.401 47.2317 50.3426 47.1689 50.3319 47.0888C50.3268 47.0521 50.3245 47.015 50.3252 46.978C50.3271 46.8703 50.3909 46.785 50.4789 46.784C50.739 46.7808 50.9993 46.7828 51.2594 46.7828C51.2605 46.7822 51.2605 46.7815 51.2605 46.7808ZM75.0431 49.0866C74.7636 49.0726 74.4884 49.0637 74.2219 48.9542C73.6056 48.7014 73.2444 48.2274 73.0512 47.6157C72.8595 47.0079 72.9014 46.4037 73.149 45.8161C73.5537 44.8546 74.4614 44.4975 75.3178 44.6121C75.4839 44.6338 75.6468 44.6749 75.8034 44.7344C76.3459 44.944 76.6743 45.3495 76.8237 45.9044C76.8326 45.9404 76.831 45.9782 76.819 46.0132C76.8083 46.0444 76.7836 46.0831 76.7555 46.0939C76.6305 46.1423 76.5007 46.1331 76.3736 46.1012C76.3389 46.0904 76.3091 46.0676 76.2897 46.0369C76.252 45.9729 76.2184 45.9065 76.1891 45.8383C75.929 45.2653 75.3317 45.0718 74.7914 45.1602C74.366 45.2301 74.0316 45.4488 73.8113 45.8277C73.6786 46.0556 73.593 46.298 73.5685 46.5625C73.5468 46.7848 73.5509 47.0089 73.5808 47.2302C73.6242 47.5455 73.7584 47.8413 73.967 48.0817C74.2672 48.4342 74.6646 48.5675 75.1122 48.5465C75.353 48.5351 75.5914 48.4779 75.7953 48.3308C75.949 48.2205 76.0748 48.0865 76.161 47.9169C76.2029 47.8339 76.2336 47.7441 76.2851 47.6679C76.301 47.6465 76.321 47.6286 76.3439 47.615C76.3668 47.6014 76.3921 47.5925 76.4184 47.5888C76.5281 47.5802 76.6394 47.5906 76.7497 47.5968C76.7927 47.5993 76.8371 47.6779 76.83 47.7264C76.7967 47.9479 76.7104 48.1582 76.5784 48.3392C76.27 48.7706 75.8594 49.0315 75.3205 49.0687C75.2273 49.0751 75.1345 49.0807 75.0431 49.0866ZM68.9347 46.8667C68.9347 46.2909 68.9338 45.7151 68.9357 45.1392C68.9347 45.028 68.943 44.9169 68.9604 44.8071C68.9686 44.7587 68.9979 44.7004 69.0653 44.6915C69.1202 44.6841 69.1748 44.6696 69.2295 44.6696C69.9729 44.6685 70.716 44.669 71.4592 44.6709C71.5143 44.6713 71.5688 44.681 71.6206 44.6999C71.6509 44.711 71.6874 44.7448 71.6931 44.7739C71.7063 44.846 71.7111 44.9197 71.7071 44.9929C71.7035 45.0726 71.6409 45.1392 71.573 45.1439C71.462 45.152 71.3507 45.1605 71.2397 45.1609C70.8124 45.163 70.3849 45.1609 69.9576 45.1627C69.865 45.1627 69.7706 45.1643 69.6807 45.1824C69.6315 45.1923 69.5742 45.2258 69.5699 45.2921C69.5603 45.4396 69.5482 45.5874 69.5477 45.735C69.547 45.9575 69.5539 46.1799 69.5608 46.4024C69.5631 46.4729 69.635 46.5457 69.7042 46.5472C70.0013 46.5533 70.2982 46.5556 70.5953 46.5612C70.8365 46.5651 71.0776 46.5709 71.3186 46.5786C71.3885 46.5808 71.4452 46.6475 71.451 46.7299C71.4546 46.7853 71.4542 46.8407 71.4501 46.8959C71.4447 46.9732 71.3837 47.0408 71.3145 47.0451C71.1851 47.0531 71.0555 47.0617 70.926 47.0627C70.573 47.0653 70.2198 47.0627 69.8668 47.0656C69.7935 47.0674 69.7208 47.0786 69.6504 47.0991C69.6208 47.1075 69.5825 47.1449 69.5783 47.1736C69.5194 47.5789 69.5393 47.987 69.57 48.3934C69.5735 48.438 69.6248 48.4891 69.6894 48.4921C69.819 48.498 69.9487 48.5078 70.0783 48.5083C70.5057 48.5105 70.933 48.5083 71.3604 48.5101C71.4531 48.5108 71.5457 48.5177 71.6372 48.5314C71.6706 48.5361 71.7063 48.5626 71.7293 48.5892C71.7852 48.6534 71.7946 48.8959 71.7433 48.9643C71.7193 48.9925 71.6868 49.0124 71.6507 49.021C71.5965 49.0335 71.5409 49.0396 71.4852 49.0389C70.7418 49.0399 69.9987 49.0399 69.2553 49.0389C69.2 49.037 69.1447 49.0324 69.0898 49.0249C69.0258 49.0183 68.9587 48.9463 68.953 48.8712C68.9444 48.7604 68.9357 48.6492 68.9356 48.5381C68.9338 47.9812 68.9347 47.4239 68.9347 46.8667ZM98.0653 46.2452C98.0653 46.6542 98.0635 47.0631 98.0661 47.472C98.0687 47.6955 98.0294 47.9174 97.9503 48.1264C97.7545 48.6404 97.3741 48.9338 96.8461 49.0443C96.6085 49.0941 96.3662 49.094 96.1238 49.0713C95.3272 48.9971 94.7919 48.4631 94.7179 47.6672C94.7128 47.6113 94.711 47.5554 94.711 47.4995C94.7104 46.6445 94.7104 45.7894 94.711 44.9347C94.711 44.8797 94.7197 44.8251 94.7368 44.7729C94.7434 44.756 94.7533 44.7405 94.766 44.7275C94.7786 44.7145 94.7938 44.7041 94.8105 44.6971C94.9371 44.6551 95.068 44.6604 95.1949 44.6949C95.2253 44.703 95.2649 44.7426 95.2685 44.7719C95.2843 44.8819 95.2925 44.993 95.2932 45.1042C95.2952 45.8291 95.2952 46.5538 95.2932 47.2787C95.2924 47.485 95.3085 47.6864 95.3771 47.8826C95.4374 48.0594 95.548 48.2148 95.6952 48.3298C95.7985 48.4112 95.9126 48.4697 96.0454 48.4909C96.2475 48.5228 96.4532 48.5269 96.6564 48.5029C97.0049 48.4618 97.235 48.2676 97.3726 47.9579C97.4564 47.7686 97.4826 47.5664 97.4814 47.3593C97.4776 46.6717 97.4796 45.9838 97.4804 45.2962C97.4804 45.1476 97.4834 44.9991 97.489 44.8506C97.4928 44.7482 97.5607 44.6808 97.6634 44.6759C97.7376 44.6722 97.8121 44.6719 97.886 44.6759C97.9858 44.6803 98.0585 44.7515 98.0589 44.8528C98.0608 45.3172 98.0597 45.7819 98.0597 46.2463L98.0653 46.2452ZM65.7791 47.0835C65.7791 46.5817 65.7801 46.0796 65.7781 45.5775C65.7781 45.4854 65.776 45.3909 65.7548 45.3021C65.7438 45.2564 65.6948 45.1971 65.6522 45.186C65.5639 45.1633 65.4684 45.165 65.3755 45.1635C65.1339 45.1597 64.8921 45.1625 64.6504 45.1569C64.4947 45.1532 64.4301 45.0729 64.433 44.9016C64.433 44.883 64.4342 44.8646 64.4358 44.8457C64.4434 44.7587 64.4939 44.6936 64.5616 44.6852C64.6165 44.6762 64.6719 44.6704 64.7275 44.6681C65.6389 44.667 66.5502 44.667 67.4616 44.6681C67.5172 44.6678 67.5727 44.6746 67.6266 44.6884C67.6599 44.6972 67.701 44.7193 67.7156 44.7474C67.77 44.8505 67.7657 44.9611 67.7212 45.0662C67.7125 45.0823 67.7006 45.0965 67.6862 45.1078C67.6717 45.1191 67.6551 45.1273 67.6373 45.1318C67.5464 45.1486 67.4545 45.1584 67.3621 45.1609C67.102 45.1679 66.8416 45.1681 66.5815 45.1749C66.4907 45.1772 66.4119 45.2622 66.4085 45.3585C66.4031 45.5071 66.4004 45.6558 66.4006 45.8046C66.3999 46.697 66.3996 47.5894 66.3996 48.482C66.3996 48.6118 66.3939 48.7418 66.3879 48.8717C66.3845 48.946 66.3197 49.0213 66.2533 49.0262C66.161 49.0336 66.0684 49.0363 65.9759 49.0341C65.87 49.0313 65.7951 48.9616 65.7905 48.8679C65.7843 48.7566 65.7809 48.6453 65.7803 48.5338C65.7786 48.0504 65.7783 47.5671 65.7791 47.0835ZM63.2279 46.9104C63.2279 47.4673 63.229 48.024 63.2269 48.5808C63.2269 48.6915 63.2226 48.8044 63.2014 48.9121C63.193 48.9541 63.1371 49.0093 63.0942 49.0187C63.0052 49.0381 62.9102 49.0354 62.818 49.0333C62.7201 49.0312 62.6493 48.956 62.6444 48.8556C62.6396 48.763 62.637 48.6703 62.6366 48.5776V45.1252C62.6366 45.0141 62.6379 44.9016 62.6552 44.7926C62.6591 44.7648 62.6722 44.7391 62.6925 44.7198C62.7128 44.7004 62.7391 44.6884 62.767 44.6859C62.8405 44.6808 62.9143 44.6706 62.988 44.6719C63.1619 44.6747 63.2219 44.7309 63.2226 44.9059C63.2252 45.5741 63.2238 46.2422 63.2238 46.9106L63.2279 46.9104ZM87.9374 39.6867C87.8942 39.5457 87.8536 39.4033 87.7993 39.2665C87.1098 37.5394 86.4192 35.8128 85.7275 34.0866C84.5869 31.2385 83.4461 28.3902 82.3049 25.5422C82.1044 25.0416 81.9027 24.5415 81.7039 24.0403C81.6424 23.8859 81.5456 23.8093 81.3677 23.8105C80.3996 23.8164 79.4315 23.8133 78.4635 23.8134C78.4263 23.8134 78.3891 23.8171 78.3516 23.8195C78.2724 23.8246 78.2073 23.859 78.171 23.929C78.1286 24.0117 78.0907 24.0966 78.0574 24.1834C77.611 25.3265 77.1651 26.4699 76.7198 27.6134L73.2763 36.4499C72.9049 37.4027 72.5303 38.3543 72.1602 39.3078C72.1139 39.4275 72.0838 39.5539 72.055 39.6793C72.0499 39.7017 72.0846 39.7533 72.108 39.7584C72.1979 39.7786 72.2896 39.7897 72.3817 39.7915C73.2753 39.7938 74.1691 39.7939 75.0627 39.7923C75.137 39.7931 75.2111 39.7888 75.2848 39.7796C75.3613 39.7689 75.4247 39.731 75.4555 39.6547C75.4834 39.5859 75.5114 39.5171 75.5372 39.4472L76.4896 36.8258C76.5539 36.6514 76.6223 36.4786 76.695 36.3075C76.7261 36.2339 76.7917 36.1979 76.8716 36.1948C76.9645 36.191 77.0575 36.1882 77.1511 36.1882H82.6804C82.7734 36.1882 82.8667 36.1892 82.9599 36.1952C82.9972 36.1968 83.0335 36.2084 83.0648 36.2288C83.0961 36.2492 83.1214 36.2777 83.138 36.3112C83.1884 36.4103 83.2338 36.5122 83.2734 36.6161C83.6261 37.5365 83.978 38.4571 84.329 39.378C84.3689 39.482 84.4082 39.5876 84.4627 39.6841C84.4863 39.726 84.5444 39.7627 84.5929 39.7726C84.683 39.7906 84.7773 39.7918 84.8699 39.7921C85.3173 39.7939 85.7635 39.7921 86.2104 39.7921C86.6758 39.7921 87.1413 39.7936 87.6066 39.7911C87.6985 39.7911 87.7903 39.7758 87.882 39.766C87.9264 39.7617 87.9509 39.7311 87.9374 39.6867ZM81.8808 33.475C81.7513 33.4805 81.6217 33.491 81.4922 33.4915C80.9345 33.4933 80.3766 33.4923 79.8187 33.4923V33.4795H77.8678C77.8235 33.4795 77.7675 33.4037 77.7787 33.3627C77.7982 33.291 77.815 33.2184 77.8398 33.1485C77.9581 32.8162 78.0776 32.4843 78.1982 32.1528C78.7079 30.7576 79.2184 29.3626 79.7299 27.9677C79.7548 27.8999 79.7952 27.8375 79.832 27.7748C79.8399 27.7617 79.8643 27.7536 79.8815 27.7525C79.8892 27.7527 79.8968 27.7547 79.9036 27.7584C79.9103 27.7621 79.9161 27.7673 79.9205 27.7737C79.9611 27.8567 80.0044 27.9391 80.0364 28.0254C80.6648 29.7136 81.2919 31.4023 81.9178 33.0915C81.9497 33.1773 81.9614 33.2707 81.9805 33.3611C81.9882 33.3964 81.9201 33.4734 81.8808 33.475ZM72.7079 27.2776C72.4636 26.2178 71.8957 25.3696 71.0266 24.7253C70.5024 24.3342 69.8879 24.0818 69.2402 23.9913C68.4278 23.8739 67.6091 23.8368 66.7927 23.8256C64.9133 23.8 63.0335 23.8143 61.1541 23.8128C61.0423 23.8128 60.9308 23.8151 60.8195 23.8198C60.7144 23.8243 60.637 23.8932 60.6336 23.9884C60.6275 24.1555 60.6244 24.3227 60.6242 24.49C60.6237 26.9269 60.6237 29.364 60.6242 31.8008V33.1403C60.6242 35.168 60.6245 37.1957 60.625 39.2234C60.6234 39.372 60.6303 39.5207 60.6457 39.6685C60.6505 39.6963 60.6645 39.7216 60.6854 39.7405C60.7064 39.7594 60.733 39.7707 60.7611 39.7727C60.835 39.7788 60.9088 39.7915 60.9826 39.7916C61.82 39.7929 62.6573 39.7929 63.4949 39.7916C63.5687 39.7916 63.6427 39.7811 63.7164 39.7742C63.7805 39.768 63.8475 39.6931 63.8498 39.6205C63.8549 39.4526 63.8605 39.2859 63.8605 39.1188C63.8614 37.5747 63.8614 36.0307 63.8605 34.4867C63.8605 34.319 63.862 34.1513 63.8671 33.9845C63.8709 33.8625 63.951 33.7889 64.0853 33.7828C64.1971 33.7774 64.3091 33.7761 64.4201 33.7759C64.9971 33.7759 65.5741 33.7843 66.1508 33.7738C67.0431 33.7572 67.9346 33.7526 68.8241 33.635C69.6591 33.5248 70.4071 33.2284 71.0723 32.7266C71.92 32.087 72.4642 31.24 72.7089 30.2067C72.9401 29.2318 72.9327 28.2547 72.7079 27.2776ZM69.5187 29.0947C69.3808 30.1358 68.6304 30.7795 67.6903 30.9345C67.287 31.0008 66.8795 31.0499 66.4682 31.0491C65.705 31.0475 64.9416 31.0565 64.1782 31.06C64.1223 31.06 64.0672 31.0517 64.0116 31.047C63.9441 31.0411 63.875 30.971 63.8729 30.9C63.8676 30.7142 63.8622 30.5282 63.8615 30.3425C63.86 29.8213 63.8615 29.2999 63.8615 28.7789C63.8615 28.164 63.8605 27.5506 63.8627 26.9361C63.8632 26.8437 63.8717 26.7514 63.8883 26.6604C63.8938 26.6303 63.9302 26.5945 63.961 26.5827C64.0129 26.5623 64.0682 26.5517 64.1239 26.5519C65.1849 26.5632 66.246 26.5741 67.307 26.5919C67.6069 26.5968 67.8953 26.6739 68.1761 26.7786C69.1095 27.1257 69.6608 28.0221 69.5187 29.0942V29.0947ZM93.374 46.2176C93.1287 45.3245 92.5741 44.7579 91.6466 44.6175C90.9421 44.5108 90.3163 44.7071 89.8224 45.237C89.3968 45.6941 89.2154 46.2495 89.2194 46.9522C89.2166 47.3474 89.3451 47.7908 89.6079 48.1869C89.9563 48.7119 90.4403 49.0282 91.0812 49.0711C91.2481 49.0828 91.4156 49.0828 91.5827 49.0711C92.219 49.0236 92.717 48.7265 93.0572 48.1915C93.444 47.5838 93.5683 46.9254 93.374 46.2176ZM92.8408 46.9023C92.8465 47.259 92.7377 47.624 92.5073 47.9561C92.0263 48.6499 91.013 48.7139 90.4313 48.243C90.3003 48.1385 90.1897 48.0109 90.1049 47.8665C89.706 47.1787 89.705 46.4885 90.1182 45.81C90.6473 44.9412 91.9465 44.9169 92.5194 45.7551C92.7556 46.1007 92.8475 46.4713 92.8408 46.9023ZM56.374 48.8153C56.1157 48.3642 55.8518 47.9161 55.5927 47.4655C55.4517 47.2202 55.4161 47.1848 55.6863 47.0354C55.767 46.9908 55.8494 46.9423 55.9158 46.8797C56.2997 46.5176 56.4454 46.0829 56.2923 45.5667C56.1457 45.0719 55.8065 44.7609 55.3068 44.6992C54.7182 44.6267 54.121 44.6525 53.5278 44.6892C53.4621 44.6931 53.4256 44.7502 53.4177 44.799C53.4021 44.9092 53.3953 45.0205 53.3971 45.1316C53.3953 45.689 53.3963 46.2462 53.3963 46.8034C53.3963 47.3977 53.3948 47.9914 53.3976 48.5864C53.3998 48.6973 53.4099 48.8077 53.428 48.9171C53.4322 48.9346 53.4401 48.9509 53.4511 48.9651C53.4622 48.9793 53.4761 48.991 53.492 48.9994C53.6344 49.0618 53.781 49.054 53.9226 48.9965C53.9505 48.9853 53.9775 48.9406 53.9819 48.9084C53.9935 48.8163 53.9992 48.7237 53.999 48.631C54.001 48.2594 53.9991 47.8878 54.0022 47.5166C54.0035 47.4428 54.0145 47.3694 54.0349 47.2984C54.0433 47.2685 54.0811 47.2295 54.1099 47.2253C54.2374 47.2062 54.3664 47.1973 54.4951 47.1871C54.6804 47.1731 54.8111 47.2476 54.9043 47.4142C55.159 47.8675 55.4216 48.3158 55.683 48.7655C55.7195 48.8299 55.7603 48.8919 55.8047 48.9509C55.8265 48.9807 55.8571 49.0026 55.8923 49.0134C56.0564 49.0509 56.2219 49.0553 56.386 49.01C56.3932 49.0065 56.3994 49.0012 56.404 48.9947C56.4086 48.9882 56.4115 48.9806 56.4123 48.9726C56.4031 48.9194 56.4 48.8603 56.374 48.8153ZM54.1084 46.6718C54.0793 46.669 54.0364 46.6291 54.0306 46.6003C54.013 46.5102 54.0031 46.4187 54.001 46.3269C53.9966 46.1796 53.9999 46.0318 53.9999 45.8843H54.0097C54.0097 45.7002 54.0083 45.5158 54.0106 45.3317C54.0112 45.2699 54.0916 45.1818 54.147 45.178C54.4599 45.1538 54.7739 45.138 55.0845 45.192C55.5278 45.2684 55.7437 45.5568 55.7262 46.012C55.7221 46.1707 55.663 46.3229 55.559 46.4427C55.455 46.5626 55.3126 46.6426 55.1562 46.669C54.8099 46.7215 54.4576 46.7062 54.1084 46.6718ZM88.0079 48.7637C87.7564 48.3304 87.5022 47.8987 87.2502 47.4656C87.0977 47.2036 87.1019 47.2073 87.3835 47.0133C87.5045 46.9295 87.627 46.8379 87.7189 46.7256C88.0124 46.37 88.0865 45.9644 87.9391 45.5249C87.7832 45.0603 87.4548 44.761 86.9777 44.7002C86.3888 44.626 85.7918 44.6545 85.1984 44.6897C85.1604 44.692 85.1031 44.7564 85.0952 44.7993C85.0751 44.9078 85.0731 45.0203 85.0728 45.1313C85.071 45.6883 85.072 46.245 85.072 46.8021C85.072 47.3961 85.0708 47.9901 85.073 48.5843C85.072 48.6953 85.0797 48.8063 85.0957 48.9162C85.0996 48.9439 85.1128 48.9694 85.1331 48.9886C85.1534 49.0078 85.1796 49.0195 85.2075 49.0218C85.2995 49.0282 85.3921 49.0315 85.4843 49.0289C85.5636 49.0266 85.6335 48.9638 85.6381 48.896C85.6451 48.785 85.652 48.6741 85.652 48.5629C85.6543 48.1915 85.652 47.8203 85.656 47.449C85.6581 47.2876 85.6839 47.1907 85.9312 47.1878C86.043 47.1866 86.1538 47.1902 86.2653 47.1934C86.388 47.1968 86.4738 47.2614 86.5331 47.364C86.7567 47.7496 86.9776 48.1361 87.2012 48.5212C87.285 48.6657 87.3689 48.8105 87.4629 48.9481C87.4899 48.9876 87.5507 49.0144 87.6009 49.0251C87.6724 49.0402 87.7483 49.0378 87.8223 49.0379C88.1 49.0394 88.1368 48.9865 88.0079 48.7637ZM85.7548 46.6694C85.7255 46.6656 85.6931 46.6258 85.677 46.5952C85.6607 46.5646 85.657 46.5234 85.6566 46.4867C85.6548 46.3011 85.6558 46.1156 85.6558 45.93H85.6654C85.6654 45.7263 85.6637 45.5226 85.6663 45.3189C85.6673 45.249 85.7408 45.1765 85.8107 45.1755C86.0887 45.1709 86.3669 45.1648 86.6448 45.1707C86.7357 45.1726 86.8278 45.2026 86.9157 45.2306C87.2135 45.3261 87.4246 45.6406 87.4131 45.9639C87.4014 46.296 87.1293 46.6358 86.8092 46.674C86.4588 46.7149 86.1048 46.7133 85.7548 46.6694ZM61.3802 48.8873C61.3545 48.7981 61.3265 48.7096 61.2963 48.6218C60.981 47.7279 60.665 46.8341 60.3485 45.9409C60.2181 45.5729 60.0842 45.2061 59.9547 44.838C59.92 44.7393 59.8541 44.6805 59.7529 44.676C59.6044 44.6706 59.4556 44.6706 59.307 44.676C59.2033 44.6788 59.1382 44.7434 59.0989 44.834C59.0765 44.885 59.0599 44.9384 59.0413 44.9909C58.6066 46.2169 58.1722 47.4433 57.7384 48.6698C57.7079 48.7563 57.6964 48.8495 57.678 48.9403C57.6755 48.9493 57.6751 48.9589 57.6769 48.9681C57.6787 48.9773 57.6827 48.986 57.6884 48.9935C57.6941 49.001 57.7015 49.0071 57.7099 49.0113C57.7183 49.0155 57.7276 49.0178 57.737 49.0179C57.8474 49.0276 57.9583 49.035 58.069 49.0356C58.1693 49.0356 58.2472 48.9929 58.2834 48.8924C58.3654 48.6652 58.4462 48.4375 58.5294 48.2106C58.5798 48.0735 58.6788 48.0074 58.8271 48.0085C59.1066 48.0107 59.3853 48.0077 59.6645 48.0075C59.8504 48.0075 60.0367 48.0093 60.2227 48.009C60.3646 48.009 60.4806 48.0455 60.5175 48.2038C60.5222 48.2218 60.528 48.2394 60.5349 48.2566C60.6119 48.4662 60.6878 48.6759 60.7664 48.8845C60.8026 48.9805 60.877 49.0292 60.9788 49.0348C61.016 49.0369 61.0531 49.0348 61.1917 49.0348L61.2575 49.031C61.3437 49.0264 61.4012 48.9593 61.3802 48.8873ZM60.0012 47.4676C59.9453 47.4686 59.8894 47.4676 59.8343 47.4676H59.3337C58.7592 47.4729 58.7852 47.4686 58.9547 46.9694C59.1096 46.5137 59.274 46.061 59.4374 45.6082C59.4486 45.5778 59.4869 45.5563 59.5149 45.5331C59.5505 45.5035 59.5787 45.5149 59.5959 45.5639C59.7936 46.1229 59.9932 46.6802 60.1878 47.2397C60.2465 47.4096 60.1974 47.464 60.0012 47.4676ZM61.1929 49.035H61.1917C61.1727 49.0358 61.1672 49.0358 61.1929 49.035ZM102.147 45.092C101.91 44.8378 101.613 44.6856 101.26 44.6793C100.739 44.6701 100.217 44.6736 99.6961 44.6729C99.6589 44.6716 99.6219 44.6786 99.5877 44.6935C99.5563 44.7091 99.5156 44.7377 99.5097 44.7669C99.4906 44.8577 99.4805 44.9501 99.4794 45.0428C99.4771 45.6383 99.4782 46.2338 99.4782 46.8295C99.4782 47.4064 99.4773 47.9834 99.4791 48.5603C99.4791 48.6714 99.4888 48.7827 99.497 48.8939C99.5018 48.9608 99.5733 49.0261 99.6486 49.0282C99.741 49.0308 99.8335 49.0264 99.9259 49.0239C99.9917 49.0225 100.032 48.9723 100.046 48.924C100.067 48.8541 100.067 48.7772 100.068 48.7032C100.07 48.4237 100.068 48.1448 100.071 47.8655C100.073 47.7922 100.083 47.7192 100.103 47.6485C100.111 47.6187 100.149 47.5786 100.177 47.5758C100.324 47.5575 100.472 47.5467 100.62 47.5432C100.88 47.5396 101.14 47.5424 101.398 47.4893C101.938 47.3783 102.309 47.0676 102.471 46.5436C102.635 46.0076 102.539 45.5099 102.147 45.092ZM101.951 46.2417C101.864 46.6829 101.559 46.9737 101.112 47.0048C100.816 47.0253 100.518 47.0068 100.221 47.0033C100.154 47.0033 100.082 46.9287 100.082 46.8576C100.079 46.5979 100.081 46.3381 100.081 46.0783H100.068V45.9106C100.078 45.0461 99.9623 45.1698 100.859 45.1632C101.006 45.1622 101.155 45.1855 101.299 45.215C101.795 45.3162 102.024 45.8682 101.951 46.2417Z" fill="#778187"/>
</svg>
