<svg width="147" height="58" viewBox="0 0 147 58" fill="none" xmlns="http://www.w3.org/2000/svg">
<path fill-rule="evenodd" clip-rule="evenodd" d="M-7.43866e-05 0.30306V14.0737H4.87595V43.9206H-7.43866e-05V57.6903H31.7055V43.9196H26.8278V14.073H31.7055V0.30306H-7.43866e-05ZM75.4294 0.30306H34.1448V14.0737H39.0208V43.9206H34.1448V57.6903H77.4295C86.8377 57.6903 92.675 50.4775 92.675 40.9635C92.675 34.3239 89.19 28.9105 83.1813 26.7007C90.0608 22.9301 90.2357 17.3548 90.2357 14.4047C90.2374 4.15214 82.7455 0.219477 75.4294 0.30306ZM58.5309 14.073H65.6714C68.0245 14.073 69.9392 15.8751 69.9392 18.0918C69.9392 20.3066 68.0237 22.1071 65.6714 22.1071H58.5309V14.073ZM58.5309 35.8837H66.4578C68.81 35.8837 70.7248 37.6851 70.7248 39.9C70.7248 42.1099 68.81 43.9188 66.4578 43.9188H58.5309V35.8837ZM143.892 0.30306H113.407C99.1211 0.30306 92.6758 8.82851 92.6758 17.7608C92.6758 28.2573 99.9058 35.8847 110.617 35.8847H122.552C124.901 35.8847 126.818 37.6859 126.818 39.9008C126.818 42.1107 124.901 43.9196 122.552 43.9196H114.624V39.3261H95.1143V57.6887H127.08C138.666 57.6887 146.33 51.6238 146.33 40.636C146.33 21.6994 129.347 22.1062 124.555 22.1062H118.456C116.106 22.1062 114.192 20.3066 114.192 18.0908C114.192 15.8741 116.106 14.072 118.456 14.072H124.378V18.6631H143.892V0.30306Z" fill="#778187"/>
</svg>
