<?xml version="1.0" encoding="UTF-8"?>
<svg xmlns="http://www.w3.org/2000/svg" style="display: none;">

	<symbol id="search" viewBox="0 0 18 18">
		<path fill-rule="evenodd" d="M7.998.002a8 8 0 1 0 4.906 14.32l3.387 3.387a1 1 0 1 0 1.414-1.414l-3.387-3.387A8 8 0 0 0 7.998.002Zm-6 8a6 6 0 1 1 12 0 6 6 0 0 1-12 0Z" clip-rule="evenodd"/>
	</symbol>
	
	<symbol id="square" viewBox="0 0 45 45">
		<path d="M0 0h45v45H0z"/>
	</symbol>
	
	<symbol id="phone" viewBox="0 0 8 15">
		<path fill-rule="evenodd" d="m4.345 9.25.09-.015c.138-.024.27-.047.36-.036.193.025.481.406.734.862.275.495.478.943.47 1.233-.01.29-.47.763-.723.765-.254.002-.428 0-.895-.048-.466-.048-1.136-.497-1.328-.801a8.88 8.88 0 0 1-.118-.191c-.137-.23-.259-.475-.428-.958a8.86 8.86 0 0 1-.439-1.89 9.25 9.25 0 0 1 .127-2.99c.08-.38.183-.756.312-1.122.164-.468.283-.72.414-.941.042-.07.085-.138.132-.208.192-.29.834-.754 1.328-.801.441-.043.63-.045.825-.047l.07-.001c.224-.003.72.463.722.765.003.302-.194.737-.469 1.233-.253.455-.495.833-.735.861-.121.015-.29-.014-.449-.04l-.002-.001c-.154-.026-.295-.05-.37-.03-.15.04-.423.147-.477.52l-.008.052c-.047.328-.056.387-.076.638a12.203 12.203 0 0 0 0 2.001l.001.016c.02.253.03.363.083.674.054.318.25.485.484.523.102.016.234 0 .365-.023Zm1.03-2.41c.775-.217 1.224-.787 1.353-.95v-.002c.232-.292.422-.626.551-.858a8.15 8.15 0 0 0 .448-.92c.116-.29.277-.762.273-1.302a2.51 2.51 0 0 0-.356-1.238 3.291 3.291 0 0 0-.5-.648 3.309 3.309 0 0 0-.612-.49A2.404 2.404 0 0 0 5.248.06l-.067.001a10.1 10.1 0 0 0-.992.056C3.487.185 2.888.5 2.522.734c-.357.23-.825.598-1.139 1.072-.289.437-.498.829-.765 1.59A11.088 11.088 0 0 0 0 7.06c0 1.238.204 2.483.618 3.663.275.784.486 1.148.742 1.555.333.527.847.908 1.192 1.124.362.227.951.53 1.625.6a8.8 8.8 0 0 0 1.112.058 2.435 2.435 0 0 0 1.263-.382c.248-.155.458-.338.624-.512a3.3 3.3 0 0 0 .482-.643c.124-.22.324-.633.34-1.167.018-.568-.158-1.066-.269-1.344a8.246 8.246 0 0 0-.45-.922 6.054 6.054 0 0 0-.594-.893 3.273 3.273 0 0 0-.483-.482 2.391 2.391 0 0 0-.827-.433 10.08 10.08 0 0 1 0-.443Z" clip-rule="evenodd"/>
	</symbol>
</svg>
