<?xml version="1.0" encoding="UTF-8"?>
<svg xmlns="http://www.w3.org/2000/svg" style="display: none;">

	<symbol id="icon-vk" viewBox="0 0 20 21">
		<path fill-rule="evenodd" d="M11.451 6.78v3.252a.34.34 0 0 0 .424.35c.3-.02.974-2.797 1.274-3.396.16-.341.415-.628.735-.826a.606.606 0 0 1 .365-.155h2.866a.461.461 0 0 1 .382.51.464.464 0 0 1-.084.218c-.224.499-2.145 3.605-2.245 3.73-.12.163-.2.351-.236.55a1.2 1.2 0 0 0 .31.625c.2.227 1.809 2.004 1.96 2.152a1.2 1.2 0 0 1 .273.577.763.763 0 0 1-.796.612h-2.332a2.785 2.785 0 0 1-.948-.564c-.224-.2-1.055-1.15-1.18-1.276a.406.406 0 0 0-.349-.145c-.149 0-.433.015-.42.584.036.394-.047.79-.237 1.138a.989.989 0 0 1-.734.275 4.967 4.967 0 0 1-2.901-.726c-1.567-.977-3.352-3.585-4.182-5.247A6.518 6.518 0 0 1 2.5 6.306c.05-.176.05-.3.225-.3h2.589a.843.843 0 0 1 .35.327c.074.1.643 1.81.818 2.11.174.3 1.033 1.948 1.5 1.948a.597.597 0 0 0 .471-.7V7.516a1.934 1.934 0 0 0-.974-1 1.257 1.257 0 0 1 .923-.499c.598-.025 2.096-.024 2.42.024a.778.778 0 0 1 .63.74Z" clip-rule="evenodd"/>
	</symbol>
	
	<symbol id="icon-inst" viewBox="0 0 20 21">
		<path fill-rule="evenodd" d="M6.5 3h7a4 4 0 0 1 4 4v7a4 4 0 0 1-4 4h-7a4 4 0 0 1-4-4V7a4 4 0 0 1 4-4Zm0 2h7a2 2 0 0 1 2 2v7a2 2 0 0 1-2 2h-7a2 2 0 0 1-2-2V7a2 2 0 0 1 2-2ZM10 7a3.5 3.5 0 1 1 0 7 3.5 3.5 0 0 1 0-7Zm0 2a1.5 1.5 0 1 1 0 3 1.5 1.5 0 0 1 0-3Z" clip-rule="evenodd"/>
	</symbol>
	
	<svg id="icon-telegram" viewBox="0 0 20 21">
		<path fill-rule="evenodd" d="M14.985 15.543a.993.993 0 0 1-.71.86 1.003 1.003 0 0 1-1.067-.335c-1.088-.861-2.786-2.102-2.786-2.102S9.194 16.12 8.975 16.34a.683.683 0 0 1-.999-.132.855.855 0 0 0-.04-.1l.69-3.432 4.911-4.804-6.699 3.806s-3.025-.9-3.474-1.076a.697.697 0 0 1-.235-1.015.699.699 0 0 1 .305-.24c.639-.324 11.91-4.611 12.29-4.721.379-.11 1.377-.398 1.268.57-.11.967-1.897 9.814-2.007 10.346Z" clip-rule="evenodd"/>
	</svg>
	
	<symbol id="icon-whatsapp" viewBox="0 0 20 21">
		<path fill-rule="evenodd" d="M10 18a7.443 7.443 0 0 1-3.99-1.172L2.5 18l1.17-3.518a7.51 7.51 0 0 1 .91-9.142 7.482 7.482 0 0 1 9.065-1.399 7.496 7.496 0 0 1 3.249 3.603 7.513 7.513 0 0 1-2.305 8.893A7.477 7.477 0 0 1 10 18Zm1.63-6.376c.5.162 1.007.295 1.52.4a.406.406 0 0 1 .34.478v.288a.662.662 0 0 1-.24.543c-.246.25-.538.452-.86.593a3.475 3.475 0 0 1-2.66-.801 8.816 8.816 0 0 1-1.31-1.077c-.399-.404-.76-.844-1.08-1.314a3.49 3.49 0 0 1-.79-2.66c.141-.32.341-.611.59-.857a.62.62 0 0 1 .54-.237h.29a.417.417 0 0 1 .47.356c.15.593.26 1.022.41 1.503.06.2-.01.248-.17.369-.1.077-.18.133-.26.192a.36.36 0 0 0-.17.51c.256.492.582.944.97 1.34.395.39.847.716 1.34.97a.365.365 0 0 0 .51-.17c.06-.081.11-.157.19-.262a.283.283 0 0 1 .37-.17v.006Z" clip-rule="evenodd"/>
	</symbol>
	
	<symbol id="icon-dzen" viewBox="0 0 20 21">
		<path fill-rule="evenodd" d="m15.5 10.213-1-.213a4 4 0 0 1-4-4l-.21-1-.19-2h-.2l-.19 2-.21 1a4 4 0 0 1-4 4l-1 .213-2 .182V7a4 4 0 0 1 4-4h7a4 4 0 0 1 4 4v3.4l-2-.187Zm-11 .574 1 .213a4 4 0 0 1 4 4l.21 1 .19 2h.2l.19-2 .21-1a4 4 0 0 1 4-4l1-.213 2-.182V14a4 4 0 0 1-4 4h-7a4 4 0 0 1-4-4v-3.395l2 .182Z" clip-rule="evenodd"/>
	</symbol>
	
	<symbol id="icon-bh" viewBox="0 0 20 21">
		<path fill-rule="evenodd" d="M7.382 18.5C4.25 17.385 2 14.325 2 10.725 2 6.183 5.582 2.5 10 2.5s8 3.683 8 8.225c0 3.596-2.244 6.652-5.37 7.77l-.35-2.857c1.611-.852 2.713-2.578 2.713-4.568 0-2.348-1.534-4.328-3.627-4.94v-.222h.959v-.73l-2.244-1.68-2.31 1.68v.807h.99v.11c-2.16.567-3.757 2.579-3.757 4.975 0 2.016 1.131 3.76 2.776 4.6l-.398 2.83Zm4.805-3.623A4.444 4.444 0 0 0 14.3 11.07c0-1.95-1.229-3.606-2.934-4.193v1.885h1.218l-1.007 1.14.61 4.975Zm-4.301.044.706-5.019-1.072-1.14h1.24V6.835c-1.772.547-3.062 2.236-3.062 4.235 0 1.652.881 3.092 2.188 3.851Z" clip-rule="evenodd"/>
	</symbol>
</svg>
