<svg width="147" height="79" viewBox="0 0 147 79" fill="none" xmlns="http://www.w3.org/2000/svg">
<mask id="mask0_44_662" style="mask-type:luminance" maskUnits="userSpaceOnUse" x="0" y="0" width="147" height="79">
<path d="M146.66 0.0146484H0.330017V78.9853H146.66V0.0146484Z" fill="white"/>
</mask>
<g mask="url(#mask0_44_662)">
<path d="M60.8399 36.9688H55.7421V58.6203H60.8399V36.9688Z" fill="#778187"/>
<path d="M84.3087 36.9688V45.4226C84.8793 44.8837 85.5521 44.466 86.2891 44.1946C87.0254 43.9233 87.8089 43.804 88.5924 43.8439C93.4135 43.8439 95.5403 47.7906 95.5403 51.4767C95.5403 55.163 93.4135 59.1018 88.5924 59.1018C86.0158 59.1018 84.4271 57.9098 83.7086 56.7338V58.644H79.2112V36.9688H84.3087ZM87.2174 48.0195C86.6135 48.0178 86.0212 48.1848 85.5072 48.5013C84.9938 48.8179 84.5781 49.2716 84.3087 49.8113V53.1186C84.5773 53.6594 84.9915 54.1141 85.5056 54.4309C86.0205 54.7477 86.6135 54.9138 87.2174 54.9104C89.3752 54.9104 90.2996 53.1501 90.2996 51.4767C90.2996 49.8034 89.3752 48.0353 87.2174 48.0353" fill="#778187"/>
<path d="M111.654 44.2632V58.6449H107.157V56.9794C106.589 57.6381 105.886 58.1661 105.094 58.5272C104.303 58.8883 103.442 59.0739 102.573 59.0712C98.6212 59.0712 96.8188 56.4111 96.8188 53.1748V44.2632H101.901V52.4881C101.873 52.7839 101.911 53.0821 102.011 53.3618C102.111 53.6414 102.272 53.8957 102.481 54.1065C102.691 54.3172 102.944 54.4795 103.224 54.5818C103.503 54.6841 103.801 54.7238 104.098 54.6982C104.575 54.6844 105.043 54.5645 105.468 54.3474C105.893 54.1303 106.265 53.8215 106.556 53.4432V44.2632H111.654Z" fill="#778187"/>
<path d="M120.001 43.8141C122.577 43.8141 124.166 45.0061 124.885 46.1821V44.264H129.382V58.03C129.382 63.7686 125.217 65.6549 120.87 65.6549C118.728 65.6726 116.609 65.2142 114.666 64.3131L115.859 60.5875C117.227 61.1666 118.697 61.4671 120.183 61.4715C122.491 61.4715 124.285 60.7769 124.285 58.3142V57.4617C123.715 58.0006 123.041 58.4182 122.305 58.6896C121.569 58.9609 120.784 59.0803 120.001 59.0404C115.18 59.0404 113.054 55.0936 113.054 51.4154C113.054 47.737 115.18 43.7825 120.001 43.7825M121.384 47.974C119.227 47.974 118.294 49.7341 118.294 51.4154C118.294 53.0966 119.227 54.849 121.384 54.849C121.98 54.8586 122.568 54.702 123.081 54.3967C123.593 54.0913 124.01 53.6494 124.285 53.1204V49.7972C124.017 49.2576 123.603 48.8038 123.091 48.487C122.578 48.1704 121.987 48.0035 121.384 48.0054" fill="#778187"/>
<path d="M54.0629 55.4859L54.6319 58.5407C53.8068 58.843 52.9342 58.9953 52.0553 58.9906C51.3981 59.0452 50.7379 58.9284 50.1394 58.6516C49.5409 58.3749 49.0246 57.9477 48.641 57.412C47.2259 58.5535 45.457 59.1674 43.638 59.1485C40.8797 59.1169 38.6666 57.4672 38.6666 54.6966C38.6666 51.0736 42.1126 49.9606 44.8947 49.9606C45.9416 49.9588 46.9857 50.0699 48.0087 50.2921V49.7791C48.0087 48.7608 47.0524 47.9873 45.0132 47.9873C43.5904 48.0158 42.1824 48.2826 40.8481 48.7766L39.9786 44.8299C41.7906 44.2423 43.6779 43.918 45.5823 43.8669C50.1664 43.8669 53.1065 45.4456 53.1065 50.5763V54.5861C53.1065 55.2729 53.5887 55.4781 54.0945 55.4781M45.6455 55.6912C46.4983 55.7176 47.3345 55.4531 48.0166 54.9413V52.9838C47.4249 52.8037 46.8094 52.7132 46.1909 52.7154C44.9895 52.7154 43.9146 53.1338 43.9146 54.2941C43.9146 55.0439 44.5706 55.6991 45.6534 55.6991" fill="#778187"/>
<path d="M77.5629 55.488L78.1317 58.5427C77.3069 58.845 76.4343 58.9974 75.5554 58.9926C74.8981 59.0472 74.238 58.9304 73.6395 58.6537C73.0409 58.377 72.5246 57.9498 72.1411 57.414C70.7174 58.5476 68.9427 59.1505 67.1222 59.119C64.3639 59.119 62.1114 57.4693 62.1114 54.6907C62.1114 51.0677 65.5574 49.9548 68.3473 49.9548C69.3942 49.9533 70.4382 50.0645 71.4614 50.2863V49.7732C71.4614 48.7549 70.505 47.9814 68.4659 47.9814C67.043 48.0099 65.635 48.2768 64.3007 48.7707L63.4313 44.8241C65.2433 44.2364 67.1304 43.9121 69.035 43.8611C73.619 43.8611 76.5592 45.4398 76.5592 50.5704V54.5803C76.5592 55.267 77.0334 55.4722 77.5471 55.4722M69.0981 55.6853C69.9509 55.7117 70.7872 55.4472 71.4693 54.9355V52.9858C70.8775 52.8058 70.2621 52.7152 69.6435 52.7174C68.4421 52.7174 67.3673 53.1358 67.3673 54.2961C67.3673 55.046 68.0233 55.7011 69.106 55.7011" fill="#778187"/>
<path d="M146.091 55.4866L146.66 58.5414C145.834 58.8437 144.962 58.996 144.083 58.9913C143.426 59.0459 142.766 58.9291 142.168 58.6524C141.569 58.3757 141.053 57.9484 140.669 57.4127C139.254 58.5541 137.485 59.1682 135.666 59.1492C132.908 59.1492 130.655 57.4995 130.655 54.721C130.655 51.098 134.101 49.985 136.891 49.985C137.938 49.9836 138.982 50.0947 140.005 50.3166V49.8035C140.005 48.7852 139.048 48.0117 137.01 48.0117C135.587 48.0402 134.179 48.307 132.845 48.801L131.975 44.8543C133.787 44.2667 135.674 43.9424 137.579 43.8914C142.163 43.8914 145.103 45.47 145.103 50.6007V54.6105C145.103 55.2973 145.577 55.5024 146.091 55.5024M137.642 55.7156C138.495 55.7419 139.331 55.4774 140.013 54.9658V52.9845C139.422 52.8044 138.806 52.7139 138.188 52.7161C136.986 52.7161 135.911 53.1345 135.911 54.2948C135.911 55.0446 136.567 55.6998 137.65 55.6998" fill="#778187"/>
<path d="M14.7469 6.90437L15.1056 7.10911L15.3107 7.23196L16.0385 7.66193L16.1923 7.75406L16.5305 7.95879L16.7765 8.11239L17.1148 8.32732L17.3813 8.50136L17.7094 8.70614L17.9964 8.90063L18.4986 9.2385L18.8472 9.47394L19.1444 9.68894L19.4622 9.90387L19.7594 10.1189L20.0875 10.3543L20.3745 10.5591L20.805 10.8764L21.1433 11.1324L21.5636 11.4498L21.8301 11.6647L22.1889 11.9412L22.4656 12.1561L22.8449 12.4632L23.0909 12.6578L23.5829 13.057L24.0647 12.6578L24.321 12.453L24.69 12.1561L24.9668 11.9309C25.0898 11.849 25.2025 11.7569 25.3152 11.6647L25.592 11.4498L25.9815 11.1528L26.3916 10.856L26.7811 10.5591L27.0784 10.3441L27.3859 10.1189L27.7036 9.90387L28.0009 9.68894L28.3085 9.47394L28.6262 9.2282L29.1798 8.85967L29.4463 8.67541L29.7845 8.46041L30.0511 8.32732L30.3893 8.11239L30.6251 7.96901L30.9839 7.74382H31.0761L31.8552 7.18077L32.1011 7.10911L32.4702 6.90437L32.6445 6.80199C29.8166 4.29371 26.7858 2.02351 23.5829 0.0146484C20.3926 2.02307 17.3754 4.29336 14.5624 6.80199L14.7469 6.90437Z" fill="#778187"/>
<path d="M39.9801 14.5726L39.6008 14.7774L39.4061 14.8899L39.037 15.0947L38.8525 15.2073L38.0222 15.6987H37.9607L37.6019 15.9137L37.3661 16.057L37.0177 16.2822L36.7716 16.4357L36.4334 16.661L36.1669 16.835L35.5928 17.2138L35.2956 17.4185L34.9777 17.6438L34.6907 17.8485L34.373 18.0738L34.0655 18.2887L33.7682 18.5139L33.3684 18.8006C33.2454 18.903 33.1019 18.9951 32.9686 19.0974L32.5791 19.3944L32.3023 19.6196L31.9539 19.8858L31.6669 20.111L31.3901 20.3362L31.9641 20.9505L32.1486 21.1449L32.5996 21.6363L32.8149 21.8718L33.2556 22.353L33.4402 22.5679L34.0655 23.2743L34.6805 23.9807L34.865 24.2059L35.2853 24.7075L35.4903 24.9532L35.9208 25.4651C35.9823 25.5367 36.0336 25.6084 36.0951 25.6698L36.6691 26.3864L36.7511 26.4888L37.2431 27.1031L37.4379 27.3488L37.8172 27.8401L38.0119 28.0961L38.258 28.4134L38.6475 28.0961L38.914 27.8914L39.283 27.6558L39.5393 27.4511L39.9801 27.1236L40.2876 26.888L40.7386 26.5605L41.0154 26.3557L41.3536 26.11L41.6509 25.9053L41.9687 25.68L42.2557 25.4753L42.635 25.2194L43.0962 24.9122C43.1983 24.8381 43.3043 24.7698 43.4141 24.7075L43.7216 24.5027L43.9983 24.3185L44.3263 24.1138L44.5928 23.95L44.9208 23.7453L45.1259 23.6224L45.7922 23.2333L46.0177 23.1002L46.3559 22.9058L46.5815 22.7829L46.8274 22.6498C45.0644 20.1929 43.127 17.7461 41.0359 15.3506L40.2363 14.4497L40.1236 14.5112L39.9699 14.593" fill="#778187"/>
<path d="M23.6909 13.1494L23.9061 13.3234L24.3674 13.7022L24.6032 13.9069L25.0029 14.255L25.249 14.4597L25.6795 14.8488L25.8743 15.0125L26.4995 15.5756L26.6636 15.7292L27.1249 16.1489L27.3606 16.3639L27.7809 16.7631L28.0064 16.9679L28.4882 17.4388L28.6317 17.5719L29.257 18.1861L29.4312 18.3602L29.8925 18.8209L30.1078 19.0461L30.5485 19.4863L30.7536 19.7012C30.9381 19.8855 31.1123 20.08 31.2968 20.2745C31.3291 20.2964 31.3569 20.3242 31.3788 20.3564L31.4301 20.4076L31.7069 20.1824L31.9939 19.9572L32.3424 19.691L32.6191 19.4658L33.0087 19.1689L33.4084 18.872L33.8083 18.5854C33.9029 18.5047 34.0021 18.4295 34.1055 18.3602L34.413 18.1452L34.7308 17.92L35.0178 17.7152L35.3356 17.49L35.6329 17.2853L36.2069 16.9064L36.4734 16.7325L36.8116 16.5072L37.0577 16.3536L37.4062 16.1284L37.642 15.9851L38.0007 15.7701H38.0622L38.8925 15.2787L39.0771 15.1661L39.4461 14.9614L39.6409 14.8488L40.0201 14.644L40.1738 14.5621L40.2866 14.5007C37.8885 11.8119 35.3315 9.18357 32.636 6.79224L32.3759 6.87389L32.0735 6.98276L31.8043 7.15515L31.0816 7.69287H30.9893L30.6305 7.9181L30.3948 8.06141L30.0565 8.32759L29.7508 8.1441L29.3637 8.53121L28.9766 8.91832L28.6317 9.22847L28.3139 9.44348L28.0064 9.65848L27.7091 9.8734L27.3913 10.0884L27.0838 10.3136L26.7866 10.5286L26.397 10.8255L25.987 11.1224L25.5975 11.4193L25.3208 11.6342L24.9722 11.9107L24.6954 12.1256L24.3264 12.4225L24.0702 12.6272L23.5933 13.0494L23.6484 13.1044" fill="#778187"/>
<path d="M0.801545 22.8855L1.15007 23.0801L1.37558 23.2132L2.03162 23.6021L2.23663 23.725L2.56465 23.9297L2.83117 24.0935L3.15918 24.2983L3.4052 24.4826L3.72297 24.6873L4.03048 24.8921L4.49176 25.1992L4.87103 25.4551L5.15805 25.6599L5.48607 25.8851L5.77309 26.0898L6.11136 26.3355L6.38812 26.5402L6.83915 26.8678L7.14666 27.1032L7.58744 27.4308L7.84371 27.6356L8.21276 27.9222L8.47925 28.1372L8.86876 28.4443L9.11481 28.127C9.17628 28.0348 9.24805 27.9529 9.30952 27.871L9.68882 27.3796L9.88361 27.1339L10.3653 26.53L10.4576 26.4174L11.0316 25.7008C11.0951 25.6373 11.1534 25.5689 11.2059 25.496L11.6364 24.9842L11.8415 24.7384L12.2617 24.2368L12.4565 24.0116L13.0612 23.3053L13.6866 22.5989L13.8813 22.3839L14.3119 21.9027L14.5271 21.6673L14.9781 21.1759L15.1626 20.9814L15.7812 20.3238L15.4818 20.0971L15.1975 19.8369L14.889 19.5375L14.5563 19.3803L14.1692 19.0506L13.8245 18.7543L13.386 18.5032L13.1168 18.2673L12.7811 18.0345L12.4847 17.8469L12.1793 17.6201L11.8829 17.3994L11.6057 17.2448L11.0624 16.8864L10.7857 16.7022L10.4576 16.4872L10.1911 16.3131L9.8528 16.1084L9.57833 15.9326L9.21546 15.7209L9.10954 15.6271L8.33842 15.1795L8.1749 15.0465L7.80589 14.8418L7.61557 14.747L7.25266 14.5323L7.05607 14.4748L6.92905 14.4072C6.66254 14.7041 6.37787 15.0233 6.12161 15.3304C4.03048 17.7259 2.09312 20.1726 0.330017 22.6296L0.576032 22.7627L0.801545 22.8855Z" fill="#778187"/>
<path d="M30.4572 35.3736L30.2625 35.1278L29.7807 34.5239C29.7477 34.4908 29.72 34.4528 29.6987 34.4112L29.1144 33.7049L28.9402 33.4899L28.5199 32.978L28.3046 32.7733L27.8844 32.2716L27.6999 32.0566L27.0848 31.34C26.8798 31.1046 26.6748 30.8691 26.4595 30.6439L26.275 30.4289L25.8342 29.9375L25.619 29.7021C25.4652 29.5382 25.3217 29.3745 25.1679 29.2209L24.9834 29.0162L24.3684 28.3507L24.2761 28.2688C24.1019 28.0743 23.9173 27.8901 23.7328 27.6955L23.5894 27.542L23.4356 27.6955L22.9025 28.2586L22.8103 28.3507L22.185 29.0162L22.0005 29.2209L21.5494 29.7021L21.3342 29.9375L20.9037 30.4289L20.7089 30.6439L20.0836 31.34L19.4686 32.0566L19.2841 32.2716L18.8638 32.7733L18.6588 33.0189L18.2283 33.5308L18.054 33.7458L17.48 34.4522L17.398 34.5546L16.906 35.179L16.7112 35.4145L16.619 35.5475L16.7522 35.6909L17.3057 36.2539L17.3878 36.3461L18.013 37.0115L18.1873 37.206L18.6383 37.6974L18.8536 37.9226L19.2944 38.414L19.4891 38.629L20.1041 39.3354L20.7192 40.0417L20.9037 40.267L21.3342 40.7584L21.5392 41.0143L21.9595 41.5159L22.1337 41.7309L22.718 42.4475L22.8 42.5499L23.2921 43.1642L23.4766 43.4098L23.5894 43.5429L23.6919 43.4098L23.8866 43.1642L24.3684 42.5499L24.4504 42.4475L25.0347 41.7309L25.209 41.5159L25.6292 41.0143L25.8444 40.7584L26.2648 40.267L26.4493 40.0417L27.0643 39.3354L27.6896 38.629L27.8741 38.414L28.3149 37.892L28.5301 37.6667L28.9811 37.1753L29.1657 36.9808C29.3707 36.7555 29.5757 36.5303 29.791 36.3154L29.8729 36.2232L30.4162 35.6602L30.5495 35.5169L30.4572 35.3838" fill="#778187"/>
<path d="M7.16483 14.5562L7.53386 14.761L7.72862 14.8736L8.09766 15.0784L8.29237 15.191L9.08169 15.6619L9.1739 15.7233L9.53268 15.9383L9.76851 16.0816L10.1068 16.2966L10.3733 16.4707L10.7013 16.6857L10.9781 16.8699L11.5213 17.2282L11.8391 17.4432L12.1466 17.6582L12.4541 17.8732L12.7616 18.0882L13.0794 18.3236L13.3664 18.5386C13.5099 18.6307 13.6432 18.7331 13.7867 18.8457L14.1455 19.1118L14.5555 19.4293L14.8322 19.634L15.1808 19.9104L15.4576 20.1254L15.6936 20.3592L15.7446 20.3096L15.8369 20.2175C16.0111 20.023 16.1956 19.8388 16.3698 19.6545L16.5851 19.4395L17.0054 18.9993L17.2309 18.774L17.7229 18.3236L17.9074 18.1393C18.1125 17.9346 18.3175 17.7298 18.5327 17.5354L18.748 17.4023L19.2195 16.9518L19.4553 16.7266L19.7731 16.3785C19.8466 16.2983 19.9253 16.2231 20.0088 16.1533L20.4598 15.7438L20.6444 15.5698L21.2491 15.0272L21.4644 14.8327L21.8847 14.4744L22.141 14.2492L22.5203 13.9215L22.7765 13.7066L23.207 13.338L23.4018 13.1742L23.5462 13.0333L23.1364 12.6873L22.8482 12.4474L22.469 12.1403L22.1922 11.9253L21.8231 11.6489L21.5567 11.4339L21.1364 11.1165L20.7982 10.8606L20.3676 10.5432L20.0806 10.3385L19.7731 10.1031L19.4758 9.88806L19.158 9.67306L18.8607 9.45806L18.4712 9.2124L17.9689 8.87453L17.7229 8.69026L17.3949 8.48556L17.1284 8.31151L16.7902 8.09651L16.5441 7.94298L16.2059 7.7382L16.0521 7.64607L15.3243 7.2161L15.1193 7.09325L14.7605 6.88851L14.576 6.78613C11.883 9.18019 9.32975 11.7266 6.92908 14.4129L7.03158 14.4744L7.20584 14.5562" fill="#778187"/>
<path d="M41.3699 76.4484V71.0861H42.7072C43.1689 71.0861 43.555 71.1536 43.8655 71.2887C44.1838 71.4158 44.4386 71.6025 44.6296 71.8488C44.8206 72.095 44.956 72.3929 45.0356 72.7425C45.1231 73.084 45.1669 73.4694 45.1669 73.8983C45.1669 74.367 45.1073 74.7643 44.9878 75.09C44.8684 75.4157 44.7092 75.6818 44.5102 75.8884C44.3112 76.0869 44.0843 76.2299 43.8296 76.3174C43.5749 76.4047 43.3122 76.4484 43.0415 76.4484H41.3699ZM39.4953 69.5132V78.0214H43.1729C43.8256 78.0214 44.3908 77.9138 44.8684 77.6993C45.354 77.4771 45.756 77.1753 46.0744 76.794C46.4007 76.4127 46.6435 75.9598 46.8027 75.4355C46.9619 74.9112 47.0416 74.3392 47.0416 73.7196C47.0416 73.0126 46.942 72.3969 46.743 71.8725C46.5519 71.3482 46.2814 70.9114 45.9311 70.5618C45.5888 70.2122 45.1789 69.9501 44.7012 69.7753C44.2316 69.6005 43.7222 69.5132 43.1729 69.5132H39.4953Z" fill="#778187"/>
<path d="M48.3445 69.5132V78.0214H54.8161V76.4484H50.2192V74.3631H54.3505V72.9093H50.2192V71.0861H54.7207V69.5132H48.3445Z" fill="#778187"/>
<path d="M60.0511 78.0214L62.881 69.5132H60.9467L59.0243 75.4951H59.0005L57.1019 69.5132H55.1796L57.9377 78.0214H60.0511Z" fill="#778187"/>
<path d="M63.6115 69.5132V78.0214H70.083V76.4484H65.4861V74.3631H69.6174V72.9093H65.4861V71.0861H69.9875V69.5132H63.6115Z" fill="#778187"/>
<path d="M71.3538 69.5132V78.0214H77.3836V76.4484H73.2284V69.5132H71.3538Z" fill="#778187"/>
<path d="M79.9359 73.803C79.9359 73.4296 79.9753 73.0682 80.0551 72.7186C80.1426 72.369 80.2781 72.0593 80.4608 71.7891C80.6443 71.5111 80.8827 71.2926 81.1777 71.1338C81.4719 70.9669 81.8304 70.8835 82.2523 70.8835C82.6743 70.8835 83.032 70.9669 83.3269 71.1338C83.6211 71.2926 83.8604 71.5111 84.0431 71.7891C84.2266 72.0593 84.3574 72.369 84.4372 72.7186C84.5247 73.0682 84.5688 73.4296 84.5688 73.803C84.5688 74.1605 84.5247 74.51 84.4372 74.8516C84.3574 75.1853 84.2266 75.4871 84.0431 75.7573C83.8604 76.0273 83.6211 76.2458 83.3269 76.4126C83.032 76.5715 82.6743 76.6509 82.2523 76.6509C81.8304 76.6509 81.4719 76.5715 81.1777 76.4126C80.8827 76.2458 80.6443 76.0273 80.4608 75.7573C80.2781 75.4871 80.1426 75.1853 80.0551 74.8516C79.9753 74.51 79.9359 74.1605 79.9359 73.803ZM78.0615 73.803C78.0615 74.4227 78.1567 75.0026 78.3479 75.5427C78.5384 76.075 78.8132 76.5398 79.1717 76.9369C79.5302 77.3341 79.9676 77.6482 80.4848 77.8782C81.0105 78.1011 81.5997 78.2119 82.2523 78.2119C82.9127 78.2119 83.5019 78.1011 84.0191 77.8782C84.5371 77.6482 84.9745 77.3341 85.333 76.9369C85.6906 76.5398 85.9655 76.075 86.1567 75.5427C86.348 75.0026 86.4432 74.4227 86.4432 73.803C86.4432 73.1674 86.348 72.5796 86.1567 72.0394C85.9655 71.4912 85.6906 71.0146 85.333 70.6095C84.9745 70.2043 84.5371 69.8865 84.0191 69.6562C83.5019 69.4258 82.9127 69.3105 82.2523 69.3105C81.5997 69.3105 81.0105 69.4258 80.4848 69.6562C79.9676 69.8865 79.5302 70.2043 79.1717 70.6095C78.8132 71.0146 78.5384 71.4912 78.3479 72.0394C78.1567 72.5796 78.0615 73.1674 78.0615 73.803Z" fill="#778187"/>
<path d="M89.5959 73.517V70.9669H91.053C91.2675 70.9669 91.475 70.9828 91.674 71.0146C91.8729 71.0464 92.0479 71.1099 92.1989 71.2052C92.3506 71.2927 92.4699 71.4198 92.5574 71.5866C92.6526 71.7534 92.7006 71.9719 92.7006 72.242C92.7006 72.5121 92.6526 72.7305 92.5574 72.8974C92.4699 73.0642 92.3506 73.1953 92.1989 73.2906C92.0479 73.378 91.8729 73.4376 91.674 73.4694C91.475 73.5011 91.2675 73.517 91.053 73.517H89.5959ZM87.7216 69.5132V78.0214H89.5959V74.9708H91.5663C92.0998 74.9708 92.5535 74.8953 92.9274 74.7444C93.3014 74.5855 93.6041 74.3789 93.8348 74.1248C94.0741 73.8705 94.2452 73.5806 94.3481 73.2548C94.4596 72.9212 94.5154 72.5836 94.5154 72.242C94.5154 71.8924 94.4596 71.5548 94.3481 71.2291C94.2452 70.9034 94.0741 70.6134 93.8348 70.3593C93.6041 70.105 93.3014 69.9025 92.9274 69.7515C92.5535 69.5926 92.0998 69.5132 91.5663 69.5132H87.7216Z" fill="#778187"/>
<path d="M95.6876 69.5132V78.0214H97.4428V72.0513H97.466L99.5556 78.0214H101L103.09 71.9918H103.114V78.0214H104.869V69.5132H102.231L100.344 75.3641H100.32L98.3262 69.5132H95.6876Z" fill="#778187"/>
<path d="M106.521 69.5132V78.0214H112.992V76.4484H108.395V74.3631H112.526V72.9093H108.395V71.0861H112.896V69.5132H106.521Z" fill="#778187"/>
<path d="M114.263 69.5132V78.0214H116.018V72.3254H116.042L119.589 78.0214H121.463V69.5132H119.708V75.2211H119.684L116.126 69.5132H114.263Z" fill="#778187"/>
<path d="M125.002 71.0861V78.0214H126.877V71.0861H129.432V69.5132H122.447V71.0861H125.002Z" fill="#778187"/>
<path fill-rule="evenodd" clip-rule="evenodd" d="M45.0368 72.7407C44.9572 72.3911 44.8219 72.0932 44.6308 71.847C44.4398 71.6007 44.1851 71.414 43.8667 71.2869C43.5562 71.1518 43.1702 71.0843 42.7085 71.0843H41.3712V76.4466H43.0428C43.3135 76.4466 43.5761 76.4029 43.8308 76.3155C44.0856 76.2281 44.3125 76.0851 44.5114 75.8865C44.7104 75.68 44.8697 75.4139 44.9891 75.0882C45.1085 74.7625 45.1681 74.3652 45.1681 73.8966C45.1681 73.4676 45.1244 73.0822 45.0368 72.7407ZM44.4286 75.8052C44.614 75.6125 44.7652 75.3614 44.8801 75.0481C44.9934 74.7389 45.052 74.3561 45.052 73.8966C45.052 73.4752 45.009 73.0999 44.9243 72.7695L44.9236 72.7664C44.8472 72.431 44.7183 72.1492 44.5391 71.9181C44.3619 71.6898 44.1248 71.515 43.8236 71.3947L43.8204 71.3934C43.5288 71.2666 43.1596 71.2004 42.7085 71.2004H41.4873V76.3305H43.0428C43.3007 76.3305 43.5506 76.2889 43.7932 76.2057C44.0301 76.1244 44.2417 75.9915 44.4286 75.8052ZM39.3804 69.3952H43.1741C43.7357 69.3952 44.259 69.4846 44.7427 69.6646C45.2356 69.845 45.6602 70.1162 46.0148 70.4783C46.3782 70.841 46.6572 71.2926 46.8532 71.8303C47.0581 72.3706 47.1589 73.0005 47.1589 73.7178C47.1589 74.3474 47.078 74.9309 46.9151 75.4675C46.7518 76.0055 46.5018 76.4726 46.1644 76.8672C45.8341 77.2625 45.4179 77.5747 44.9181 77.8031L44.9172 77.8038C44.4215 78.026 43.8393 78.136 43.1741 78.136H39.3804V69.3952ZM45.9324 70.56C45.59 70.2104 45.1801 69.9483 44.7025 69.7735C44.2329 69.5988 43.7234 69.5114 43.1741 69.5114H39.4965V78.0198H43.1741C43.8269 78.0198 44.3921 77.9122 44.8697 77.6978C45.3552 77.4756 45.7573 77.1735 46.0756 76.7922C46.402 76.4109 46.6448 75.958 46.804 75.4337C46.9632 74.9094 47.0428 74.3374 47.0428 73.7178C47.0428 73.0108 46.9433 72.3951 46.7443 71.8707C46.5532 71.3464 46.2826 70.9095 45.9324 70.56ZM48.2307 69.3952H54.8391V71.2004H50.3376V72.7914H54.4689V74.4774H50.3376V76.3305H54.9346V78.136H48.2307V69.3952ZM54.8185 76.4466V78.0198H48.3468V69.5114H54.723V71.0843H50.2215V72.9075H54.3528V74.3613H50.2215V76.4466H54.8185ZM60.1374 78.136H57.8557L55.0222 69.3952H57.1893L59.0154 75.1489L60.8645 69.3952H63.0445L60.1374 78.136ZM60.9491 69.5114H62.8834L60.0536 78.0198H57.9401L55.1819 69.5114H57.1043L59.0028 75.4933H59.0268L60.9491 69.5114ZM63.4943 69.3952H70.1027V71.2004H65.6012V72.7914H69.7325V74.4774H65.6012V76.3305H70.1982V78.136H63.4943V69.3952ZM70.0821 76.4466V78.0198H63.6104V69.5114H69.9866V71.0843H65.485V72.9075H69.6164V74.3613H65.485V76.4466H70.0821ZM71.2369 69.3952H73.3438V76.3305H77.499V78.136H71.2369V69.3952ZM77.3829 76.4466V78.0198H71.353V69.5114H73.2277V76.4466H77.3829ZM80.4608 71.7874C80.2781 72.0575 80.1426 72.3672 80.0551 72.7168C79.9753 73.0664 79.9351 73.4279 79.9351 73.8012C79.9351 74.1587 79.9753 74.5082 80.0551 74.8499C80.1426 75.1835 80.2781 75.4854 80.4608 75.7555C80.6435 76.0255 80.8827 76.244 81.1769 76.4109C81.4719 76.5697 81.8296 76.6492 82.2516 76.6492C82.6735 76.6492 83.032 76.5697 83.3262 76.4109C83.6212 76.244 83.8597 76.0255 84.0431 75.7555C84.2259 75.4854 84.3575 75.1835 84.4372 74.8499C84.5247 74.5082 84.5681 74.1587 84.5681 73.8012C84.5681 73.4279 84.5247 73.0664 84.4372 72.7168C84.3575 72.3672 84.2259 72.0575 84.0431 71.7874C83.8597 71.5093 83.6212 71.2908 83.3262 71.132C83.032 70.9651 82.6735 70.8817 82.2516 70.8817C81.8296 70.8817 81.4719 70.9651 81.1769 71.132C80.8827 71.2908 80.6435 71.5093 80.4608 71.7874ZM83.2705 76.3092C83.5492 76.151 83.7745 75.9447 83.9464 75.6903C84.1213 75.4324 84.2475 75.1436 84.3242 74.8229V74.821C84.4094 74.4889 84.4519 74.1491 84.4519 73.8012C84.4519 73.437 84.4094 73.085 84.3242 72.7451L84.3234 72.7426C84.2468 72.4057 84.1213 72.1096 83.9464 71.8525L83.9456 71.8512C83.7737 71.5893 83.5492 71.384 83.2712 71.2342L83.2689 71.233C82.9956 71.0782 82.6588 70.9979 82.2516 70.9979C81.8451 70.9979 81.5075 71.0782 81.2342 71.233L81.2327 71.2342C80.9547 71.384 80.7302 71.5893 80.5576 71.8512L80.5568 71.8525C80.3826 72.11 80.2525 72.4066 80.1681 72.7438C80.0907 73.0842 80.0512 73.4366 80.0512 73.8012C80.0512 74.1494 80.0899 74.4896 80.1673 74.8219C80.2517 75.143 80.3818 75.4321 80.5568 75.6903C80.7294 75.9447 80.954 76.151 81.2335 76.3092C81.5068 76.4565 81.8451 76.533 82.2516 76.533C82.6588 76.533 82.9964 76.4565 83.2705 76.3092ZM78.2379 75.5797C78.0421 75.0261 77.9445 74.4329 77.9445 73.8012C77.9445 73.1541 78.0421 72.5531 78.2379 71.9994C78.4331 71.438 78.7157 70.948 79.0842 70.5307C79.4543 70.1126 79.9056 69.7851 80.4375 69.5483C80.9795 69.3106 81.585 69.1926 82.2516 69.1926C82.9259 69.1926 83.5314 69.3102 84.0664 69.5483C84.5983 69.7851 85.0496 70.1126 85.4197 70.5307C85.7883 70.9479 86.0701 71.4377 86.266 71.9989C86.4618 72.5528 86.5594 73.1539 86.5594 73.8012C86.5594 74.4329 86.4618 75.0261 86.266 75.5797C86.0701 76.1253 85.7875 76.6039 85.419 77.013C85.0489 77.4229 84.5975 77.7458 84.0664 77.9827L84.0648 77.9835C83.5306 78.2126 82.9259 78.3264 82.2516 78.3264C81.5857 78.3264 80.9811 78.2126 80.4391 77.9835L80.4375 77.9827C79.9064 77.7458 79.455 77.4229 79.085 77.013C78.7164 76.6039 78.4338 76.1253 78.2379 75.5797ZM78.3471 72.0376C78.1567 72.5778 78.0606 73.1657 78.0606 73.8012C78.0606 74.4209 78.1567 75.0008 78.3471 75.5409C78.5383 76.0732 78.8132 76.538 79.1709 76.9352C79.5294 77.3324 79.9676 77.6459 80.4848 77.8766C81.0097 78.0988 81.5989 78.2103 82.2516 78.2103C82.9128 78.2103 83.502 78.0988 84.0191 77.8766C84.5363 77.6459 84.9745 77.3324 85.3322 76.9352C85.6907 76.538 85.9656 76.0732 86.156 75.5409C86.3473 75.0008 86.4433 74.4209 86.4433 73.8012C86.4433 73.1657 86.3473 72.5778 86.156 72.0376C85.9656 71.4894 85.6907 71.0128 85.3322 70.6077C84.9745 70.2025 84.5363 69.8847 84.0191 69.6544C83.502 69.424 82.9128 69.3088 82.2516 69.3088C81.5989 69.3088 81.0097 69.424 80.4848 69.6544C79.9676 69.8847 79.5294 70.2025 79.1709 70.6077C78.8132 71.0128 78.5383 71.4894 78.3471 72.0376ZM92.202 71.2034C92.051 71.1081 91.8753 71.0446 91.6763 71.0128C91.4773 70.981 91.2706 70.9651 91.0554 70.9651H89.599V73.5152H91.0554C91.2706 73.5152 91.4773 73.4993 91.6763 73.4676C91.8753 73.4358 92.051 73.3762 92.202 73.2888C92.353 73.1935 92.473 73.0624 92.5605 72.8956C92.6557 72.7287 92.7037 72.5102 92.7037 72.2402C92.7037 71.9701 92.6557 71.7516 92.5605 71.5848C92.473 71.418 92.353 71.2908 92.202 71.2034ZM89.7152 73.3991H91.0554C91.2652 73.3991 91.4657 73.3836 91.6585 73.3528C91.8443 73.3231 92.0054 73.2681 92.1416 73.1893C92.274 73.1056 92.3793 72.9906 92.4575 72.8416L92.4591 72.8378C92.5419 72.6943 92.5876 72.4978 92.5876 72.2402C92.5876 71.9825 92.5419 71.786 92.4591 71.6425L92.4575 71.6388C92.3793 71.4898 92.2748 71.3796 92.1439 71.304L92.1401 71.3018C92.0038 71.2158 91.8435 71.1571 91.6585 71.1275C91.4657 71.0967 91.2652 71.0813 91.0554 71.0813H89.7152V73.3991ZM87.6085 69.3952H91.5695C92.113 69.3952 92.5829 69.4761 92.9747 69.6425C93.3618 69.7985 93.6792 70.0099 93.9231 70.2786C94.1724 70.5447 94.3528 70.849 94.4612 71.1907C94.5766 71.5284 94.6346 71.8784 94.6346 72.2402C94.6346 72.5945 94.5766 72.9444 94.4612 73.2893C94.3528 73.6312 94.1732 73.9357 93.9231 74.2018C93.6792 74.4702 93.3618 74.6854 92.9755 74.8495L92.9739 74.8503C92.5822 75.0083 92.113 75.0852 91.5695 75.0852H89.7152V78.136H87.6085V69.3952ZM93.838 74.123C94.0764 73.8687 94.2475 73.5788 94.3513 73.253C94.4628 72.9194 94.5185 72.5818 94.5185 72.2402C94.5185 71.8906 94.4628 71.553 94.3513 71.2273C94.2475 70.9016 94.0764 70.6116 93.838 70.3574C93.6072 70.1032 93.3045 69.9007 92.9306 69.7497C92.5558 69.5908 92.1021 69.5114 91.5695 69.5114H87.7246V78.0198H89.599V74.969H91.5695C92.1021 74.969 92.5558 74.8935 92.9306 74.7426C93.3045 74.5837 93.6072 74.3771 93.838 74.123ZM95.5722 69.3952H98.4106L100.331 75.0293L102.147 69.3952H104.987V78.136H102.999V72.6108L101.085 78.136H99.4744L97.5597 72.6646V78.136H95.5722V69.3952ZM97.4436 72.0495H97.4676L99.5572 78.0198H101.002L103.092 71.99H103.116V78.0198H104.871V69.5114H102.231L100.345 75.3622H100.321L98.327 69.5114H95.6884V78.0198H97.4436V72.0495ZM106.405 69.3952H113.013V71.2004H108.512V72.7914H112.643V74.4774H108.512V76.3305H113.109V78.136H106.405V69.3952ZM112.992 76.4466V78.0198H106.521V69.5114H112.897V71.0843H108.396V72.9075H112.527V74.3613H108.396V76.4466H112.992ZM114.148 69.3952H116.191L119.592 74.8517V69.3952H121.579V78.136H119.525L116.135 72.6915V78.136H114.148V69.3952ZM116.019 72.3236H116.043L119.589 78.0198H121.463V69.5114H119.708V75.2192H119.685L116.127 69.5114H114.264V78.0198H116.019V72.3236ZM122.445 71.0843V69.5114H129.43V71.0843H126.875V78.0198H125.001V71.0843H122.445ZM124.885 71.2004H122.329V69.3952H129.546V71.2004H126.991V78.136H124.885V71.2004Z" fill="#778187"/>
</g>
</svg>
