<svg width="147" height="25" viewBox="0 0 147 25" fill="none" xmlns="http://www.w3.org/2000/svg">
<path d="M54.2438 5.95679V19.542H51.3491V10.6074L45.5791 19.542H42.6848V5.95679H45.5791V14.9107L51.3491 5.95679H54.2438Z" fill="#778187"/>
<path d="M65.3625 9.56519V19.542H62.5449V15.6441H59.0137V19.542H56.1962V9.56519H59.0137V13.2127H62.5449V9.56519H65.3625Z" fill="#778187"/>
<path d="M75.1865 11.997H72.1953V19.542H69.3782V11.997H66.3874V9.56519H75.1865V11.997Z" fill="#778187"/>
<path d="M78.5276 13.3864H82.503C82.4256 12.2482 81.692 11.5337 80.5723 11.5337C79.4539 11.5337 78.6817 12.2288 78.5276 13.3864ZM78.5081 15.3546V15.3932C78.5081 16.6091 79.4149 17.5544 80.7663 17.5544C81.7305 17.5544 82.29 17.0721 82.4256 16.6864H85.1461C84.8759 18.0756 83.5443 19.7736 80.7077 19.7736C77.6785 19.7736 75.671 17.8439 75.671 14.6022C75.671 11.3406 77.6586 9.33374 80.5536 9.33374C83.4092 9.33374 85.2426 11.302 85.2426 14.3899V15.3546H78.5081Z" fill="#778187"/>
<path d="M93.5232 11.997H89.2594V19.542H86.4418V9.56519H93.5232V11.997Z" fill="#778187"/>
<path d="M101.726 14.5632C101.726 12.865 100.877 11.7648 99.5653 11.7648C98.2527 11.7648 97.3851 12.8457 97.3851 14.5245V14.6018C97.3851 16.2805 98.2527 17.342 99.5653 17.342C100.877 17.342 101.726 16.2612 101.726 14.5632ZM104.563 14.5632C104.563 17.8436 102.614 19.7733 100.164 19.7733C98.8898 19.7733 97.9446 19.2715 97.4426 18.577V23.2275H94.6251V9.56516H97.3266V10.7234C97.828 9.9706 98.7737 9.3335 100.24 9.3335C102.614 9.3335 104.563 11.2251 104.563 14.5632Z" fill="#778187"/>
<path d="M111.474 15.779V15.3353H109.506C108.637 15.3353 108.02 15.7597 108.02 16.4736C108.02 17.1688 108.58 17.5932 109.448 17.5932C110.529 17.5932 111.474 16.9372 111.474 15.779ZM114.233 13.0195V19.5421H111.628V18.4613C111.011 19.2718 109.969 19.7736 108.676 19.7736C106.746 19.7736 105.202 18.6161 105.202 16.6091C105.202 14.5634 106.746 13.3864 109.294 13.3864H111.474V12.9233C111.474 11.9972 110.779 11.5148 109.834 11.5148C108.869 11.5148 108.367 11.9585 108.213 12.4796H105.588C105.859 10.7623 107.345 9.33374 109.949 9.33374C112.517 9.33374 114.233 10.5882 114.233 13.0195Z" fill="#778187"/>
<path d="M126.375 17.1106V22.0118H123.673V19.5419H115.877V9.56519H118.694V17.1106H122.148V9.56519H124.965V17.1106H126.375Z" fill="#778187"/>
<path d="M136.68 9.56519V19.542H133.922V13.7145L130.063 19.542H127.4V9.56519H130.159V15.3545L134.018 9.56519H136.68Z" fill="#778187"/>
<path d="M143.766 14.3509V11.7648H142.318C141.431 11.7648 140.891 12.3053 140.891 13.0387C140.891 13.7912 141.412 14.3509 142.318 14.3509H143.766ZM146.545 9.56519V19.542H143.766V16.4928H142.589L140.62 19.542H137.514L139.848 15.9717C138.729 15.3545 138.112 14.2735 138.112 13.0193C138.112 11.0898 139.385 9.56519 141.933 9.56519H146.545Z" fill="#778187"/>
<path d="M28.3597 24.1984V0.894775H33.0796V24.1984H28.3597Z" fill="#778187"/>
<path d="M9.61523 24.2274V14.9422H0.330017V10.1758H9.61523V0.890625H14.3817V10.1758H23.6668V14.9422H14.3817V24.2274" fill="#778187"/>
</svg>
