<svg width="147" height="30" viewBox="0 0 147 30" fill="none" xmlns="http://www.w3.org/2000/svg">
<g style="mix-blend-mode:luminosity">
<path d="M0.150136 23.4129L7.73834 22.693C7.95521 23.4588 8.41508 24.1334 9.04862 24.6152C9.72296 25.0343 10.5091 25.2378 11.3021 25.1984C12.148 25.2494 12.9868 25.0162 13.6851 24.536C13.8859 24.4009 14.0505 24.2188 14.1647 24.0054C14.2789 23.7921 14.3392 23.5541 14.3402 23.3121C14.327 23.0427 14.2383 22.7823 14.0843 22.5609C13.9302 22.3394 13.7171 22.1656 13.4691 22.0594C12.4029 21.6834 11.3001 21.4203 10.1789 21.2747C8.30595 20.9977 6.45907 20.5666 4.65698 19.986C3.61436 19.5824 2.7097 18.8877 2.05078 17.9845C1.34707 17.0636 0.974236 15.9325 0.992473 14.7736C0.96123 13.5425 1.36389 12.3396 2.12998 11.3754C2.95174 10.3674 4.04653 9.61762 5.28333 9.21559C7.02488 8.68464 8.84139 8.44142 10.6613 8.49564C12.4281 8.44877 14.1927 8.65235 15.9025 9.10041C16.9861 9.40982 17.9757 9.98377 18.7823 10.7707C19.6171 11.6565 20.2593 12.7056 20.6685 13.8521L13.3539 14.6152C13.2192 14.0426 12.8912 13.5341 12.4252 13.1753C11.784 12.7569 11.0307 12.5434 10.2654 12.5633C9.61015 12.5091 8.95518 12.671 8.40069 13.0241C8.22395 13.153 8.07898 13.3205 7.97669 13.5139C7.8744 13.7073 7.81751 13.9214 7.81034 14.14C7.80796 14.3752 7.87499 14.6058 8.00306 14.8029C8.13111 15.0002 8.31453 15.1553 8.53026 15.2487C9.58088 15.624 10.6784 15.8518 11.7917 15.9255C13.7243 16.0793 15.629 16.4834 17.4576 17.1278C18.5989 17.5676 19.5855 18.3338 20.2941 19.3308C20.9431 20.2455 21.2882 21.341 21.2805 22.4625C21.2662 23.662 20.9063 24.8319 20.2438 25.8319C19.4346 27.0077 18.2909 27.9132 16.9608 28.4309C15.0116 29.1518 12.9396 29.482 10.8629 29.4028C7.22478 29.4028 4.63539 28.8844 3.09471 27.8477C1.56033 26.8166 0.492506 25.2239 0.121338 23.4129" fill="#778187"/>
<path d="M25.744 26.9622C27.7262 28.5893 30.318 29.4029 33.5194 29.4029C37.1095 29.4029 39.9245 28.4237 41.9643 26.4655C42.9696 25.4891 43.7604 24.3139 44.286 23.0148C44.8116 21.7157 45.0605 20.3212 45.0168 18.9205C45.0828 16.3905 44.1993 13.9274 42.5402 12.0162C40.4956 9.70763 37.4791 8.5509 33.4905 8.54608C29.9916 8.54608 27.2175 9.53245 25.168 11.505C24.1564 12.4732 23.3599 13.6434 22.8302 14.9396C22.3006 16.2358 22.0497 17.629 22.0939 19.0285C22.0496 20.5393 22.3546 22.0399 22.9852 23.4135C23.6158 24.7871 24.5549 25.9966 25.7296 26.9479M30.8412 14.9896C31.1719 14.574 31.5941 14.2402 32.0748 14.0142C32.5555 13.7882 33.0819 13.6761 33.6129 13.6864C34.1243 13.6825 34.6298 13.796 35.0903 14.0182C35.5509 14.2404 35.9543 14.5653 36.2695 14.968C37.0615 16.1081 37.4377 17.4857 37.335 18.8701C37.335 20.7467 36.9823 22.1098 36.2767 22.9594C35.9465 23.3618 35.5311 23.6859 35.0606 23.9085C34.5899 24.131 34.0759 24.2465 33.5553 24.2465C33.0348 24.2465 32.5207 24.131 32.0501 23.9085C31.5796 23.6859 31.1642 23.3618 30.834 22.9594C30.114 22.1002 29.754 20.7708 29.754 18.9708C29.754 17.1998 30.114 15.8751 30.8412 15.0112" fill="#778187"/>
<path d="M55.3205 8.99964H58.9634V14.6152H55.3205V28.9493H47.6603V14.6152H44.7805V8.99964H47.6603V8.09973C47.6683 7.20115 47.755 6.305 47.9194 5.42154C48.0477 4.55484 48.3891 3.73353 48.913 3.03133C49.4529 2.36753 50.1511 1.85011 50.9432 1.52664C52.1727 1.0875 53.4765 0.89425 54.7805 0.957891C56.7413 1.00184 58.6979 1.15809 60.6409 1.42586L59.7769 6.0335C59.0418 5.90494 58.2983 5.83035 57.5523 5.81031C57.0306 5.76496 56.5081 5.88864 56.062 6.16308C55.7276 6.44219 55.501 6.82919 55.4212 7.2574C55.3379 7.83417 55.3066 8.41728 55.3277 8.99964" fill="#778187"/>
<path d="M69.0491 14.6152V21.6922C69.0028 22.2645 69.0839 22.8398 69.2868 23.3769C69.4243 23.5947 69.6197 23.7699 69.8511 23.8831C70.0824 23.9962 70.3407 24.0428 70.597 24.0176C71.4042 23.9733 72.2002 23.8084 72.9585 23.5281L73.5272 28.7837C71.7909 29.1808 70.0167 29.3884 68.2356 29.4028C66.7972 29.4923 65.3578 29.2459 64.0311 28.6829C63.129 28.1923 62.4225 27.407 62.0297 26.4583C61.5163 24.9046 61.299 23.2684 61.389 21.6347V14.6152H58.5812V8.99964H61.389V5.33513L69.0491 1.41144V14.6152Z" fill="#778187"/>
<path d="M82.9011 1.41144H75.2407V28.9493H82.9011V1.41144Z" fill="#778187"/>
<path d="M93.7876 8.99963H86.1271V28.9493H93.7876V8.99963Z" fill="#778187"/>
<path d="M93.7876 1.41144H86.1271V6.64543H93.7876V1.41144Z" fill="#778187"/>
<path d="M96.7111 8.99965H103.853V12.2466C104.714 11.0736 105.81 10.0929 107.071 9.36686C108.309 8.76602 109.676 8.4745 111.052 8.51734C111.965 8.46379 112.879 8.60416 113.734 8.92927C114.589 9.25437 115.366 9.75688 116.012 10.4036C117.208 11.6635 117.798 13.6073 117.798 16.2351V28.9493H110.145V17.9774C110.227 17.0323 109.972 16.0886 109.425 15.3136C109.176 15.0484 108.871 14.8412 108.533 14.7068C108.194 14.5725 107.83 14.5142 107.467 14.536C107.04 14.5284 106.616 14.6184 106.23 14.7994C105.843 14.9803 105.503 15.2473 105.235 15.5799C104.659 16.2999 104.378 17.5382 104.378 19.3597V28.9493H96.7111V8.99965Z" fill="#778187"/>
<path d="M142.614 20.0364C142.704 17.8228 142.259 15.6203 141.318 13.6145C140.481 11.9867 139.158 10.6604 137.532 9.8204C135.881 8.95649 133.632 8.52454 130.786 8.52454C127.273 8.52454 124.52 9.48442 122.528 11.4043C121.53 12.3889 120.748 13.5711 120.232 14.8753C119.716 16.1794 119.478 17.5768 119.533 18.9781C119.479 20.999 119.992 22.9944 121.017 24.7377C121.901 26.2579 123.206 27.4903 124.774 28.287C126.736 29.1174 128.859 29.4986 130.987 29.4028C134.026 29.4028 136.351 28.9709 137.978 28.0998C139.745 27.0835 141.186 25.5852 142.132 23.7801L134.623 23.1034C134.265 23.5987 133.818 24.0234 133.306 24.3561C132.662 24.7273 131.932 24.921 131.189 24.9176C130.643 24.9356 130.099 24.8289 129.601 24.6056C129.101 24.3823 128.66 24.0483 128.309 23.6289C127.715 22.8391 127.373 21.8879 127.33 20.9004H142.614V20.0364ZM127.381 17.2647C127.415 16.3044 127.703 15.3705 128.216 14.5577C128.525 14.1484 128.917 13.8081 129.365 13.5589C129.813 13.3095 130.31 13.1567 130.82 13.1099C131.331 13.0632 131.846 13.1236 132.333 13.2873C132.818 13.451 133.266 13.7145 133.644 14.0609C134.388 14.9656 134.806 16.0938 134.832 17.2647H127.381Z" fill="#778187"/>
<path d="M35.2834 4.06085C42.181 4.69604 48.9999 6.00294 55.6435 7.96294C62.4253 9.79161 73.2173 8.99964 73.2173 8.99964V14.6152C66.1134 15.3165 58.9415 14.4943 52.1806 12.2034C38.5016 7.2286 32.3461 6.22068 25.0387 5.72391C15.1395 5.00397 3.34677 6.52305 3.34677 6.52305L3.23157 5.50073C3.23157 5.50073 20.3014 2.47697 35.2834 4.06085Z" fill="#778187"/>
<path d="M142.456 5.11199H142.83C143.371 5.11199 143.421 4.8384 143.421 4.69442C143.421 4.32005 142.902 4.32724 142.83 4.32724H142.456V5.11199ZM143.125 3.67209C143.896 3.67209 144.299 4.08247 144.299 4.62243C144.302 4.81645 144.236 5.00508 144.111 5.15426C143.987 5.30344 143.814 5.40335 143.622 5.43596C143.786 5.50841 143.918 5.63933 143.989 5.80313L144.551 7.16382H143.622L143.169 6.05512C143.133 5.96763 143.071 5.89353 142.991 5.84318C142.91 5.79284 142.817 5.76877 142.722 5.77433H142.456V7.16382H141.599V3.6649L143.125 3.67209ZM142.896 8.04935C143.418 8.04935 143.929 7.89439 144.363 7.60407C144.798 7.31374 145.136 6.90109 145.337 6.41829C145.536 5.93549 145.588 5.40423 145.487 4.89169C145.385 4.37916 145.133 3.90837 144.764 3.53885C144.394 3.16933 143.923 2.91769 143.411 2.81574C142.898 2.71379 142.367 2.76611 141.884 2.96609C141.401 3.16608 140.989 3.50473 140.698 3.93924C140.408 4.37374 140.253 4.88459 140.253 5.40716C140.255 6.10734 140.534 6.77828 141.029 7.27337C141.524 7.76847 142.195 8.04746 142.896 8.04935ZM142.896 1.97303C143.574 1.97303 144.239 2.17444 144.803 2.55179C145.368 2.92913 145.808 3.46547 146.068 4.09298C146.328 4.72048 146.396 5.41097 146.264 6.07713C146.131 6.74328 145.804 7.35519 145.324 7.83546C144.844 8.31574 144.231 8.64283 143.565 8.77534C142.899 8.90778 142.209 8.83984 141.581 8.57989C140.953 8.31996 140.417 7.8798 140.04 7.31506C139.663 6.75032 139.461 6.08637 139.461 5.40716C139.461 4.95592 139.548 4.50893 139.721 4.09185C139.893 3.67478 140.146 3.29583 140.465 2.97675C140.784 2.65767 141.163 2.40475 141.58 2.2325C141.997 2.06026 142.444 1.97208 142.896 1.97303Z" fill="#778187"/>
</g>
</svg>
